<svg width="108" height="108" viewBox="0 0 108 108" fill="none" xmlns="http://www.w3.org/2000/svg">
<g clip-path="url(#clip0)">
<path d="M60.714 10.4288C60.714 10.4288 74.3692 1.8945 91.3635 18.8887C108.358 35.883 100.719 60.1582 100.719 67.4415C100.719 74.7247 103.5 79.578 103.5 79.578C103.5 79.578 101.25 81 96.75 81C97.6387 88.8165 102.967 99 102.967 99H6.75C6.75 99 11.7023 60.3878 24.75 42.75C37.7978 25.1123 22.7813 -5.3145 60.714 10.4288L60.714 10.4288Z" fill="#EDE7F6"/>
<path d="M15.0817 60.75C15.0817 60.75 9.9495 76.5 2.25 78.75C7.38225 81 9.9495 83.25 17.6468 81C25.344 78.75 15.0817 60.75 15.0817 60.75Z" fill="#EDE7F6"/>
<path d="M65.25 80.9999H42.75V98.9999H65.25V80.9999Z" fill="#9575CD"/>
<path d="M54.0004 87.7499C76.5332 87.7499 94.7996 71.6322 94.7996 51.75C94.7996 31.8677 76.5332 15.75 54.0004 15.75C31.4676 15.75 13.2012 31.8677 13.2012 51.75C13.2012 71.6322 31.4676 87.7499 54.0004 87.7499Z" fill="#B39DDB"/>
<path d="M69.7249 11.6482C69.7249 11.6482 74.6682 33.8962 42.5337 46.2555C23.9329 53.4105 30.1744 68.5035 37.5904 70.974C37.5904 70.974 19.1247 76.0657 12.8719 63.558C-4.43057 28.953 45.0064 -18.0135 69.7249 11.6482H69.7249Z" fill="#EDE7F6"/>
<path d="M63.2203 63.252C59.7328 63.252 56.2903 61.7805 53.9885 59.9715C49.655 63.2025 41.3773 64.062 37.4848 60.4507C37.0281 60.0277 37.001 59.3167 37.4263 58.8623C37.8515 58.4055 38.5648 58.3808 39.0148 58.8037C42.2413 61.7985 50.006 60.6712 53.2348 57.6787C53.6646 57.2782 54.3328 57.2782 54.7648 57.6787C57.8788 60.5655 64.5478 62.9212 68.9848 58.8037C69.437 58.3807 70.148 58.4055 70.5733 58.8623C70.9963 59.3167 70.9715 60.03 70.5148 60.4507C68.3458 62.4645 65.7695 63.2498 63.2203 63.252H63.2203Z" fill="#212121"/>
<path d="M48.3169 66.888C52.4298 68.58 56.0929 68.589 59.8436 66.9127L60.7503 67.716C59.2113 69.0772 56.8128 70.4002 54.0611 70.3732C51.4556 70.3462 49.0458 69.2347 47.3291 67.77L48.3169 66.888Z" fill="#9575CD"/>
<path d="M50.625 49.5C51.2463 49.5 51.75 48.4926 51.75 47.25C51.75 46.0073 51.2463 45 50.625 45C50.0037 45 49.5 46.0073 49.5 47.25C49.5 48.4926 50.0037 49.5 50.625 49.5Z" fill="#212121"/>
<path d="M57.375 49.5C57.9963 49.5 58.5 48.4926 58.5 47.25C58.5 46.0073 57.9963 45 57.375 45C56.7537 45 56.25 46.0073 56.25 47.25C56.25 48.4926 56.7537 49.5 57.375 49.5Z" fill="#212121"/>
<path d="M73.125 45C78.7169 45 83.25 42.0031 83.25 38.3062C83.25 34.6094 78.7169 31.6125 73.125 31.6125C67.5331 31.6125 63 34.6094 63 38.3062C63 42.0031 67.5331 45 73.125 45Z" fill="white"/>
<path d="M73.125 42.75C74.989 42.75 76.5 41.2389 76.5 39.375C76.5 37.511 74.989 36 73.125 36C71.261 36 69.75 37.511 69.75 39.375C69.75 41.2389 71.261 42.75 73.125 42.75Z" fill="#212121"/>
<path d="M69.7505 18.5962C69.7505 18.5962 68.6952 34.416 51.539 42.2212C33.116 50.6025 27.491 63.5265 37.5912 70.974C30.2337 70.9087 19.337 51.2213 49.2192 38.2837C59.837 33.714 65.39 27.0337 69.7505 18.5962H69.7505Z" fill="#9575CD"/>
</g>
<defs>
<clipPath id="clip0">
<rect width="108" height="108" fill="white"/>
</clipPath>
</defs>
</svg>
