<svg width="108" height="108" viewBox="0 0 108 108" fill="none" xmlns="http://www.w3.org/2000/svg">
<g clip-path="url(#clip0)">
<path d="M54 8.99999C54 8.99999 51.1875 2.87998 40.2188 4.81499C29.25 6.74999 22.5 4.49998 22.5 4.49998C22.5 4.49998 24.75 11.25 29.25 11.25C20.25 13.5 11.8125 24.255 10.4062 30.1275C9 36 2.25 40.5 2.25 40.5C2.25 40.5 3.9375 42.255 8.71875 40.2525C9 51.75 2.25 63 2.25 63L12.5415 59.2155L99.144 66.9127L105.75 67.5C105.75 67.5 101.25 58.5 99 47.25C102.094 49.185 103.5 49.5 103.5 49.5C103.5 49.5 101.522 34.956 96.75 27C90 15.75 85.5 13.5 81 11.25C83.25 8.99999 87.75 8.99999 87.75 8.99999C87.75 8.99999 74.25 -2.25002 54 8.99999H54Z" fill="#EFEBE9"/>
<path d="M96.75 49.5C96.75 49.5 105.75 63 105.75 101.25C90 101.25 54 101.25 54 101.25L54.1868 53.0033L96.75 49.5Z" fill="#EFEBE9"/>
<path d="M11.25 49.5C11.25 49.5 2.25 63 2.25 101.25C18 101.25 54 101.25 54 101.25L53.8132 53.0033L11.25 49.5Z" fill="#EFEBE9"/>
<path d="M67.5 83.2499H40.5V101.25H67.5V83.2499Z" fill="#FFA726"/>
<path d="M78.4121 71.6693C80.4461 90.207 73.3946 96.75 53.9996 96.75C34.6046 96.75 27.5531 90.207 29.5871 71.6693C31.4906 54.324 39.3926 33.5025 53.9996 33.5025C68.6066 33.5025 76.5086 54.324 78.4121 71.6693Z" fill="#FFB74D"/>
<path d="M60.7502 86.598C60.5477 86.598 60.343 86.544 60.1585 86.4315C54.0677 82.6695 47.905 86.3887 47.8397 86.4315C47.3132 86.7532 46.618 86.5935 46.2917 86.0647C45.9655 85.536 46.1297 84.843 46.6585 84.5167C46.96 84.3345 54.0857 80.0437 61.3397 84.5167C61.8685 84.8452 62.0327 85.536 61.7065 86.0647C61.495 86.409 61.126 86.598 60.7502 86.598H60.7502Z" fill="#212121"/>
<path d="M59.8298 81.6435C55.6672 79.9312 51.9615 79.9222 48.1658 81.6187L47.25 80.8065C48.8093 79.4295 51.2325 78.0907 54.018 78.1177C56.6528 78.1447 59.0918 79.2697 60.8288 80.7525L59.8298 81.6435Z" fill="#FB8C00"/>
<path d="M72.2813 45.8775L30.1838 66.456C29.9498 67.9433 29.7405 69.4215 29.5853 70.875C28.998 76.392 29.1803 80.8673 30.1928 84.4515L77.4405 64.2015C76.4303 58.6935 74.4053 50.8095 72.2813 45.8775Z" fill="#F4511E"/>
<path d="M54 64.44V74.25L49.5 72.288L54 64.44Z" fill="#FFCC80"/>
<path d="M54 64.44V74.25L58.5 72.288L54 64.44Z" fill="#D84315"/>
<path d="M78.4125 70.875C78.3788 70.569 78.3315 70.254 78.2955 69.9457L63 76.5L78.6983 78.0705C78.777 75.8902 78.6938 73.5165 78.4125 70.875H78.4125Z" fill="#F4511E"/>
<path d="M48.2492 89.3677C52.4117 91.08 56.1174 91.089 59.9132 89.3925L60.8312 90.207C59.2719 91.584 56.8487 92.9227 54.0632 92.8957C51.4284 92.8687 48.9894 91.7437 47.2524 90.261L48.2492 89.3677Z" fill="#FB8C00"/>
<path d="M34.875 59.625L48.375 64.125C48.375 68.625 35.4353 74.7945 34.875 59.625Z" fill="white"/>
<path d="M73.125 59.625L59.625 64.125C59.625 68.625 72.5648 74.7945 73.125 59.625Z" fill="white"/>
<path d="M42.75 67.4999C43.9926 67.4999 45 66.4926 45 65.2499C45 64.0073 43.9926 62.9999 42.75 62.9999C41.5074 62.9999 40.5 64.0073 40.5 65.2499C40.5 66.4926 41.5074 67.4999 42.75 67.4999Z" fill="#FB8C00"/>
<path d="M65.25 67.4999C66.4926 67.4999 67.5 66.4926 67.5 65.2499C67.5 64.0073 66.4926 62.9999 65.25 62.9999C64.0074 62.9999 63 64.0073 63 65.2499C63 66.4926 64.0074 67.4999 65.25 67.4999Z" fill="#FB8C00"/>
<path d="M53.7211 31.9702C53.7211 31.9702 42.6961 49.2772 61.5241 57.339C60.6803 50.238 62.7908 45.738 62.7908 45.738C62.7908 45.738 71.0888 55.512 81.7853 59.9467C80.7661 55.296 77.4226 51.1537 77.7106 41.3415C77.9963 31.527 70.7986 20.9182 53.7211 31.9702Z" fill="#EFEBE9"/>
<path d="M62.1767 41.1817C62.1767 41.1817 48.5215 43.2247 45.9182 57.2152C43.7447 55.1835 43.3825 48.4807 43.3825 48.4807C43.3825 48.4807 32.812 52.4407 30.094 67.2547C27.376 48.2242 37.4515 29.4052 63.8485 32.751C90.2455 36.0967 62.1767 41.1817 62.1767 41.1817L62.1767 41.1817Z" fill="#EFEBE9"/>
<path d="M35.8135 56.1892C40.417 59.7555 40.6307 64.9665 49.408 64.053C43.4117 62.316 43.9472 57.4695 35.8135 56.1892Z" fill="#212121"/>
<path d="M72.1868 56.1892C67.5833 59.7555 67.3695 64.9665 58.5923 64.053C64.5885 62.316 64.053 57.4695 72.1868 56.1892Z" fill="#212121"/>
<path d="M76.9233 44.19C83.3921 49.3942 84.5171 56.7067 85.0796 61.416C82.6181 61.065 68.3688 60.3382 62.2511 50.8455C61.8281 54.2902 61.2656 53.658 61.6886 57.5955C58.7118 55.6493 58.9458 51.0795 60.5636 41.751C61.4771 43.9312 68.9786 54.5242 80.7911 56.916C80.1566 54.315 79.5941 50.6588 76.9233 44.19V44.19Z" fill="#D7CCC8"/>
<path d="M8.41992 68.1885C8.41992 68.1885 10.6587 63.4072 13.3362 61.4677C13.3137 68.787 17.0014 74.2905 17.9487 75.8002C17.9487 75.8002 19.8274 55.8607 33.8899 45.9472C26.9307 47.916 18.0004 55.791 16.3759 66.546C15.6807 63.6727 15.0034 59.2312 15.0709 57.2355C12.4564 57.9622 8.81817 61.353 8.41992 68.1885Z" fill="#D7CCC8"/>
<path d="M41.9762 28.791C39.5845 35.2597 37.2332 50.4157 45.9182 57.213C45.9182 57.213 47.1085 52.2742 50.9065 47.493C52.3825 50.6565 53.5795 54.0315 61.5242 57.3367C60.919 56.3602 62.4062 54.2722 60.1877 53.3295C57.3752 52.1347 54.2162 48.6495 52.3825 43.5555C49.4305 45.0337 45.0002 50.8702 45.0002 50.8702C42.9617 47.565 40.8715 40.599 41.9762 28.791Z" fill="#D7CCC8"/>
<path d="M62.2979 19.863C62.2979 19.863 69.7521 22.6755 73.5479 32.0985C74.9541 29.286 74.8146 25.0672 74.8146 25.0672C74.8146 25.0672 82.6896 29.1465 85.2209 33.6465C83.9541 25.911 72.7041 20.0047 72.7041 20.0047L72.2811 24.2235C72.2811 24.2213 68.3436 21.5505 62.2979 19.863H62.2979Z" fill="#D7CCC8"/>
</g>
<defs>
<clipPath id="clip0">
<rect width="108" height="108" fill="white"/>
</clipPath>
</defs>
</svg>
