<svg width="107" height="108" viewBox="0 0 107 108" fill="none" xmlns="http://www.w3.org/2000/svg">
<path d="M82.8959 97.659C63.5021 102.497 43.901 102.398 24.106 97.659C13.1675 94.5068 2.229 86.373 2.229 72.4545C2.229 58.5338 12.024 47.25 24.1038 47.25H82.8936C94.9757 47.25 104.771 58.5338 104.771 72.4545C104.771 86.373 95.2009 94.5068 82.8959 97.659Z" fill="#263238"/>
<path d="M60.1875 83.25H46.8125V101.25H60.1875V83.25Z" fill="#E57373"/>
<path d="M80.112 56.9025H27.3632C14.7127 56.9025 4.4585 45.8573 4.4585 32.229C4.4585 18.603 10.6422 11.214 22.9049 7.55551C40.1252 3.48076 66.8752 3.48076 84.5703 7.55551C97.2944 12.4605 103.017 18.603 103.017 32.229C103.017 45.8573 92.7625 56.9025 80.112 56.9025Z" fill="#263238"/>
<path d="M28.979 42.75V72.1193C28.979 80.2755 34.8529 85.1693 42.8712 86.886C50.0112 87.9998 57.1022 88.074 64.1285 86.886C71.6341 85.4415 78.0207 80.2755 78.0207 72.1193V42.75H28.979Z" fill="#E57373"/>
<path d="M53.4998 39.5257C44.679 39.5257 36.3731 39.06 28.979 38.25V50.1368L44.3045 60.75L53.3081 53.1698L62.6952 60.75L78.0207 50.1368V38.25C70.6265 39.06 62.3207 39.5257 53.4998 39.5257Z" fill="#00E5FF"/>
<path d="M59.2758 68.1435C55.1518 66.4312 51.4804 66.4222 47.7198 68.1187L46.8125 67.3065C48.3573 65.9295 50.7581 64.5907 53.5178 64.6177C56.1282 64.6447 58.5446 65.7697 60.2655 67.2525L59.2758 68.1435Z" fill="#6D4C41"/>
<path d="M47.8025 78.1177C51.9264 79.83 55.5979 79.839 59.3585 78.1425L60.268 78.957C58.7232 80.334 56.3223 81.6727 53.5626 81.6457C50.9523 81.6187 48.5359 80.4937 46.8149 79.011L47.8025 78.1177Z" fill="#6D4C41"/>
<path d="M56.8436 74.25H50.1561C49.5408 74.25 49.0415 73.746 49.0415 73.125C49.0415 72.504 49.5408 72 50.1561 72H56.8436C57.4588 72 57.9582 72.504 57.9582 73.125C57.9582 73.746 57.4588 74.25 56.8436 74.25Z" fill="#212121"/>
<path d="M39.3245 39.1005L31.9214 52.1775L43.1319 59.94L54.699 39.5077C54.2933 39.51 53.9077 39.528 53.4997 39.528C48.5844 39.5257 43.8519 39.3682 39.3245 39.1005Z" fill="#FFCDD2"/>
<path d="M50.1561 63C50.7717 63 51.2707 61.9926 51.2707 60.75C51.2707 59.5074 50.7717 58.5 50.1561 58.5C49.5405 58.5 49.0415 59.5074 49.0415 60.75C49.0415 61.9926 49.5405 63 50.1561 63Z" fill="#212121"/>
<path d="M56.8436 63C57.4592 63 57.9582 61.9926 57.9582 60.75C57.9582 59.5074 57.4592 58.5 56.8436 58.5C56.228 58.5 55.729 59.5074 55.729 60.75C55.729 61.9926 56.228 63 56.8436 63Z" fill="#212121"/>
</svg>
