<svg width="108" height="108" viewBox="0 0 108 108" fill="none" xmlns="http://www.w3.org/2000/svg">
<path d="M17.118 74.25C17.118 74.25 16.9875 74.421 16.7557 74.7428C14.9175 77.283 6.75 89.2665 6.75 101.25C17.118 101.25 23.8118 101.189 23.8118 101.189L22.2998 78.75L17.118 74.25Z" fill="#6D4C41"/>
<path d="M72 27H76.5C76.5 27 87.6938 27 87.75 40.5C87.894 74.7563 99 72 99 101.25H69.75L72 27Z" fill="#6D4C41"/>
<path d="M53.2485 6.75H43.5015C32.5665 6.75 23.4427 15.0975 22.4685 25.9875L15.75 101.25H85.923C80.6355 82.6222 76.2188 55.5795 74.2815 25.9875C73.4062 14.6588 64.656 6.8445 53.2485 6.75Z" fill="#EF9A9A"/>
<path d="M30.375 45C34.7242 45 38.25 39.9632 38.25 33.75C38.25 27.5368 34.7242 22.5 30.375 22.5C26.0258 22.5 22.5 27.5368 22.5 33.75C22.5 39.9632 26.0258 45 30.375 45Z" fill="white"/>
<path d="M29.25 37.6087C30.4926 37.6087 31.5 36.1692 31.5 34.3935C31.5 32.6178 30.4926 31.1782 29.25 31.1782C28.0074 31.1782 27 32.6178 27 34.3935C27 36.1692 28.0074 37.6087 29.25 37.6087Z" fill="#212121"/>
<path d="M50.625 45C54.9742 45 58.5 39.9632 58.5 33.75C58.5 27.5368 54.9742 22.5 50.625 22.5C46.2758 22.5 42.75 27.5368 42.75 33.75C42.75 39.9632 46.2758 45 50.625 45Z" fill="white"/>
<path d="M49.5 37.6087C50.7426 37.6087 51.75 36.1692 51.75 34.3935C51.75 32.6178 50.7426 31.1782 49.5 31.1782C48.2574 31.1782 47.25 32.6178 47.25 34.3935C47.25 36.1692 48.2574 37.6087 49.5 37.6087Z" fill="#212121"/>
<path d="M67.5 70.875C67.5 74.6775 65.934 78.219 63.234 81.1958C60.966 83.6978 57.3773 84.7935 54.2812 87.3247C50.787 90.1822 46.053 91.116 40.5 90C35.8267 91.6267 30.2895 90.315 27.7852 87.75C22.1535 87.1267 20.2545 83.9408 17.766 81.1958C15.066 78.219 13.5 74.6775 13.5 70.875C13.5 60.3135 25.5893 51.75 40.5 51.75C55.4108 51.75 67.5 60.3135 67.5 70.875Z" fill="#8D6E63"/>
<path d="M36 63.6885C40.9706 63.6885 45 60.0086 45 55.4692C45 50.9299 40.9706 47.25 36 47.25C31.0294 47.25 27 50.9299 27 55.4692C27 60.0086 31.0294 63.6885 36 63.6885Z" fill="#8D6E63"/>
<path d="M65.25 45C65.25 49.9703 69.9008 54 74.25 54C78.5992 54 81 47.7203 81 42.75C81 37.7797 78.5992 36 74.25 36C69.9008 36 65.25 40.0297 65.25 45Z" fill="#EF9A9A"/>
<path d="M76.5 36C74.25 36 72 37.8607 72 45C72 48.6202 66.375 48.5032 65.718 45.2205C65.1465 42.3562 64.0305 39.4087 65.25 33.75C65.25 33.75 67.2187 27 71.7187 27C76.2187 27 74.25 27 74.25 27L81 36H76.5Z" fill="#6D4C41"/>
<path d="M46.908 63.648C43.7265 64.872 40.779 65.5155 38.2343 65.8328C35.685 66.105 32.67 66.15 29.2928 65.6843C21.231 64.5728 20.205 72.8663 26.5433 76.221C29.7113 77.8995 34.722 78.3428 39.6158 77.7758C44.5095 77.211 49.2863 75.636 51.9885 73.2803C57.393 68.5688 54.504 60.7275 46.908 63.648Z" fill="#212121"/>
<path d="M26.5435 76.221C29.7115 77.8995 34.7223 78.3427 39.616 77.7757C44.5098 77.211 49.2865 75.636 51.9888 73.2802C52.6008 72.747 53.08 72.1665 53.4828 71.5747C49.5003 69.1987 44.206 68.049 38.5653 68.6992C32.9268 69.3517 28.0353 71.6782 24.6963 74.9002C25.2273 75.3862 25.8258 75.8407 26.5435 76.221Z" fill="#EF5350"/>
<path d="M46.9081 63.648C43.7266 64.872 40.7791 65.5155 38.2344 65.8328C35.6851 66.105 32.6701 66.15 29.2929 65.6843C25.7311 65.1938 23.5576 66.5393 22.7769 68.4833C26.7616 70.5195 32.5374 71.442 38.8014 70.7198C45.0631 69.9953 50.4789 67.779 53.8921 64.89C52.6884 63.1733 50.2651 62.3588 46.9081 63.648Z" fill="white"/>
<path d="M56.4254 18.099C56.1172 18.099 55.8022 18.0337 55.5007 17.8987C52.5959 16.587 50.2447 16.974 50.2222 16.9762C49.0094 17.1945 47.8372 16.3822 47.6122 15.1695C47.3872 13.9567 48.1724 12.7912 49.3829 12.555C49.7587 12.483 53.1539 11.9002 57.3524 13.7947C58.4864 14.3077 58.9904 15.6397 58.4774 16.7715C58.1017 17.6062 57.2849 18.099 56.4254 18.099Z" fill="#8D6E63"/>
<path d="M25.0669 18.099C24.2096 18.099 23.3906 17.6062 23.0149 16.7737C22.5041 15.642 23.0081 14.3078 24.1399 13.797C28.3429 11.9025 31.7359 12.4853 32.1094 12.5573C33.3289 12.7935 34.1254 13.9748 33.8869 15.1965C33.6506 16.4093 32.4851 17.1945 31.2679 16.9785C31.1779 16.9627 28.8559 16.605 25.9916 17.901C25.6901 18.0337 25.3751 18.099 25.0669 18.099Z" fill="#8D6E63"/>
<path d="M39.3053 33.7838C38.9948 33.8603 30.7148 37.9688 29.8643 40.833C29.0138 43.6973 30.6585 48.375 30.6585 48.375C34.947 45.0833 38.0858 38.8688 39.3053 33.7838Z" fill="#EF9A9A"/>
<path d="M32.625 45C33.2463 45 33.75 43.9926 33.75 42.75C33.75 41.5074 33.2463 40.5 32.625 40.5C32.0037 40.5 31.5 41.5074 31.5 42.75C31.5 43.9926 32.0037 45 32.625 45Z" fill="#212121"/>
<path d="M37.125 45C37.7463 45 38.25 43.9926 38.25 42.75C38.25 41.5074 37.7463 40.5 37.125 40.5C36.5037 40.5 36 41.5074 36 42.75C36 43.9926 36.5037 45 37.125 45Z" fill="#212121"/>
<path d="M88.4946 54.0338C89.3001 59.346 93.7416 69.426 99.2811 71.9033C92.8394 71.2733 90.1011 70.7873 86.0804 66.1073C82.2194 61.614 88.4946 54.0338 88.4946 54.0338Z" fill="#6D4C41"/>
<path d="M16.1527 96.75L15.75 101.25H85.923C85.5135 99.8055 85.1108 98.2935 84.7125 96.75H16.1527Z" fill="#FFCCBC"/>
</svg>
