<svg width="108" height="108" viewBox="0 0 108 108" fill="none" xmlns="http://www.w3.org/2000/svg">
<g clip-path="url(#clip0)">
<path d="M46.481 3.76168L1.83873 65.9337C-1.14702 69.9387 -0.424768 75.5817 3.47673 78.7159C32.8302 102.3 74.1695 103.209 104.508 78.7384C108.41 75.5929 109.155 69.9544 106.162 65.9449L61.5177 3.76168C57.7782 -1.25357 50.2205 -1.25357 46.481 3.76168V3.76168Z" fill="#DCE775"/>
<path d="M60.75 83.2499H47.25V101.25H60.75V83.2499Z" fill="#00C853"/>
<path d="M60.9388 15.75H47.0608C45.7896 15.75 44.6218 16.443 44.0143 17.559L32.0241 39.5415C31.6843 40.167 31.5426 40.8802 31.6213 41.5867L35.7928 85.8735C35.9233 87.0435 36.6366 88.0695 37.6896 88.596L52.4473 95.976C53.4238 96.4642 54.5758 96.4642 55.5523 95.976L70.3101 88.596C71.3631 88.0695 72.0786 87.0457 72.2068 85.8735L76.3783 41.5867C76.4571 40.8802 76.3153 40.1647 75.9756 39.5415L63.9853 17.559C63.3778 16.443 62.2101 15.75 60.9388 15.75V15.75Z" fill="#FFF59D"/>
<path d="M74.491 65.34C68.7962 65.313 63.25 62.2755 57.7375 58.752C55.456 57.294 52.5467 57.294 50.2652 58.752C44.7527 62.2777 39.2087 65.313 33.5117 65.34L35.7932 85.8735C35.9237 87.0435 36.637 88.0695 37.69 88.596L52.4477 95.976C53.4242 96.4642 54.5762 96.4642 55.5527 95.976L70.3105 88.596C71.3635 88.0695 72.079 87.0457 72.2072 85.8735L74.491 65.34Z" fill="#00E676"/>
<path d="M55.4829 30.6472L61.5421 23.607C62.7369 22.2165 61.5826 20.25 59.5711 20.25H47.4549C45.4434 20.25 44.2891 22.2165 45.4839 23.6048L51.5431 30.645C52.5219 31.7835 54.5041 31.7835 55.4829 30.6472H55.4829Z" fill="#00E676"/>
<path d="M49.2525 48.4777C50.0825 43.4698 47.8038 38.9209 44.1628 38.3174C40.5219 37.714 36.8974 41.2844 36.0674 46.2923C35.2373 51.3001 37.516 55.849 41.157 56.4525C44.798 57.056 48.4224 53.4855 49.2525 48.4777Z" fill="white"/>
<path d="M66.6623 56.4536C70.3033 55.8502 72.582 51.3013 71.752 46.2934C70.922 41.2856 67.2975 37.7151 63.6565 38.3186C60.0156 38.9221 57.7368 43.4709 58.5669 48.4788C59.3969 53.4867 63.0214 57.0571 66.6623 56.4536Z" fill="white"/>
<path d="M42.75 49.4999C43.9926 49.4999 45 47.9889 45 46.1249C45 44.261 43.9926 42.7499 42.75 42.7499C41.5074 42.7499 40.5 44.261 40.5 46.1249C40.5 47.9889 41.5074 49.4999 42.75 49.4999Z" fill="#00E676"/>
<path d="M65.25 49.4999C66.4926 49.4999 67.5 47.9889 67.5 46.1249C67.5 44.261 66.4926 42.7499 65.25 42.7499C64.0074 42.7499 63 44.261 63 46.1249C63 47.9889 64.0074 49.4999 65.25 49.4999Z" fill="#00E676"/>
<path d="M47.2498 84.1252C46.8875 84.1252 46.5321 83.9497 46.3138 83.6235C45.9695 83.1082 46.109 82.4085 46.6265 82.0642C53.9188 77.1997 61.0738 81.864 61.3753 82.0642C61.8905 82.4085 62.03 83.1037 61.688 83.6212C61.346 84.1365 60.6463 84.276 60.131 83.9385C59.8813 83.772 53.903 79.9177 47.8775 83.9362C47.6818 84.0645 47.4658 84.1252 47.2498 84.1252L47.2498 84.1252Z" fill="#212121"/>
<path d="M48.375 36C48.2063 36 48.0353 35.9617 47.871 35.8807C43.6815 33.786 39.4177 33.75 39.3727 33.75C38.754 33.7477 38.25 33.246 38.25 32.6227C38.2522 32.004 38.754 31.5 39.375 31.5C39.5708 31.5 44.1945 31.527 48.879 33.8692C49.4348 34.1482 49.6598 34.8232 49.383 35.379C49.1828 35.7727 48.7868 36 48.375 36H48.375Z" fill="#00E676"/>
<path d="M59.6251 36C59.2133 36 58.8173 35.7705 58.6193 35.379C58.3426 34.8232 58.5676 34.1482 59.1233 33.8692C63.8056 31.527 68.4293 31.5 68.6251 31.5C69.2461 31.5 69.7478 32.004 69.7501 32.6227C69.7501 33.2437 69.2461 33.7477 68.6273 33.75C68.5823 33.75 64.3186 33.786 60.1291 35.8807C59.9648 35.964 59.7938 36 59.6251 36H59.6251Z" fill="#00E676"/>
<path d="M57.375 65.25H50.625C50.004 65.25 49.5 64.746 49.5 64.125C49.5 63.504 50.004 63 50.625 63H57.375C57.996 63 58.5 63.504 58.5 64.125C58.5 64.746 57.996 65.25 57.375 65.25Z" fill="#4CAF50"/>
</g>
<defs>
<clipPath id="clip0">
<rect width="108" height="108" fill="white"/>
</clipPath>
</defs>
</svg>
