<svg width="108" height="108" viewBox="0 0 108 108" fill="none" xmlns="http://www.w3.org/2000/svg">
<path d="M49.5 83.25H36V101.25H49.5V83.25Z" fill="#FFCC80"/>
<path d="M42.75 87.75C57.6617 87.75 69.75 70.6249 69.75 49.5C69.75 28.3751 57.6617 11.25 42.75 11.25C27.8383 11.25 15.75 28.3751 15.75 49.5C15.75 70.6249 27.8383 87.75 42.75 87.75Z" fill="#FFE082"/>
<path d="M20.25 29.25C20.6258 19.0305 27.8438 8.47125 40.5 6.75C66.8767 5.4585 92.25 6.75 103.5 2.25C101.812 6.68925 100.127 10.2802 96.75 13.5C99.423 13.6733 101.578 13.5337 103.313 12.69C98.8132 37.44 88.1257 71.5658 66.0938 84.8317C56.0632 89.5658 51.6082 81.4567 52.3125 72.8775C57.0938 75.69 63.2812 71.19 60.5385 64.7842C55.1092 52.0987 55.4062 38.8462 56.25 31.5C52.7243 32.6992 50.0513 32.9625 46.125 30.69C57.9375 16.9088 34.7805 -1.125 20.25 29.25Z" fill="#EF9A9A"/>
<path d="M49.3285 48.8756C50.6128 42.7965 48.2043 37.1398 43.9489 36.2408C39.6936 35.3418 35.2029 39.541 33.9186 45.6201C32.6344 51.6991 35.0429 57.3559 39.2982 58.2549C43.5535 59.1538 48.0442 54.9546 49.3285 48.8756Z" fill="white"/>
<path d="M23.625 58.5C26.7316 58.5 29.25 53.4632 29.25 47.25C29.25 41.0368 26.7316 36 23.625 36C20.5184 36 18 41.0368 18 47.25C18 53.4632 20.5184 58.5 23.625 58.5Z" fill="white"/>
<path d="M40.508 27.2686C42.2185 22.701 41.0136 18.0277 37.8169 16.8306C34.6201 15.6335 30.6421 18.3658 28.9316 22.9334C27.2211 27.501 28.4259 32.1742 31.6227 33.3714C34.8194 34.5685 38.7975 31.8362 40.508 27.2686Z" fill="white"/>
<path d="M33.2074 34.7805C32.5302 34.7805 31.8642 34.6612 31.2274 34.4227C27.4564 33.0097 25.9534 27.6772 27.8772 22.536C29.8054 17.397 34.4247 14.3595 38.2137 15.777C40.1127 16.488 41.4919 18.1665 42.0949 20.5042C42.6597 22.698 42.4729 25.2382 41.5662 27.6615C40.6594 30.0847 39.1294 32.1255 37.2642 33.408C35.9389 34.317 34.5462 34.7805 33.2074 34.7805ZM36.2584 17.6782C33.9072 17.6782 31.2387 19.9845 29.9832 23.3257C28.5207 27.2385 29.4522 31.3537 32.0172 32.3167C33.2007 32.76 34.6182 32.4922 35.9862 31.554C37.4757 30.5302 38.7087 28.8697 39.4534 26.874H39.4557C40.2027 24.8782 40.3647 22.8172 39.9124 21.0667C39.4984 19.4625 38.6142 18.3307 37.4239 17.8852C37.0504 17.7457 36.6589 17.6782 36.2584 17.6782Z" fill="#90A4AE"/>
<path d="M29.25 49.5L4.5 63L31.5 65.25L29.25 49.5Z" fill="#FFE082"/>
<path d="M49.329 48.879C50.5687 43.011 48.3502 37.5795 44.3677 36.396C42.1335 37.3995 40.5 40.3492 40.5 43.875C40.5 48.2242 42.9683 51.75 46.0125 51.75C47.0543 51.75 48.015 51.3135 48.8452 50.598C49.0342 50.0445 49.203 49.4752 49.329 48.879Z" fill="#00E5FF"/>
<path d="M29.25 47.25C29.25 41.3572 26.9775 36.5782 24.093 36.0945C23.1098 37.5165 22.5 39.4672 22.5 41.625C22.5 45.9742 24.9683 49.5 28.0125 49.5C28.3995 49.5 28.7753 49.4415 29.1398 49.3335C29.205 48.6562 29.25 47.9655 29.25 47.25Z" fill="#00E5FF"/>
<path d="M36.2435 75.1432C32.0067 75.1432 28.823 73.0687 28.625 72.9382C28.1097 72.594 27.9702 71.8987 28.3122 71.3812C28.6497 70.866 29.3495 70.7242 29.8692 71.064C30.119 71.2282 36.0995 75.0825 42.1227 71.0662C42.6357 70.7242 43.3332 70.8592 43.682 71.379C44.0262 71.8942 43.8867 72.594 43.3692 72.9382C40.8942 74.592 38.4282 75.1432 36.2435 75.1432Z" fill="#212121"/>
<path d="M17.2759 63.5153C17.7619 65.6573 18.3581 67.6148 19.0534 69.399L34.8754 64.125L17.2759 63.5153Z" fill="#FFCC80"/>
<path d="M62.2957 27.2677C62.2957 27.2677 55.6154 33.5722 46.4512 30.4087C48.7957 32.8005 55.3589 37.017 62.2957 27.2677Z" fill="#E57373"/>
<path d="M46.6655 30.924C46.6655 30.924 56.4395 31.5945 56.4395 22.5945C56.4395 27.0945 55.877 31.239 51.6583 32.5417C51.656 32.5417 47.93 32.1187 46.6655 30.924Z" fill="#E57373"/>
<path d="M70.4519 81.9473C64.3139 85.1828 55.6896 86.7285 52.2876 75.8993C53.0008 86.7285 61.3483 89.8223 70.4519 81.9473Z" fill="#E57373"/>
<path d="M52.3219 75.429C52.3219 75.429 57.8524 83.5155 64.9174 77.9378C61.3849 80.7255 57.7827 82.854 54.1467 80.3498C54.1467 80.3498 52.1689 77.1638 52.3219 75.429Z" fill="#E57373"/>
</svg>
