<svg width="107" height="108" viewBox="0 0 107 108" fill="none" xmlns="http://www.w3.org/2000/svg">
<path d="M95.8542 49.5C95.8542 49.5 104.771 63 104.771 101.25C89.1667 101.25 53.5 101.25 53.5 101.25L53.685 53.0032L95.8542 49.5Z" fill="#F8BBD0"/>
<path d="M85.8229 65.25C96.2876 65.25 104.771 56.6874 104.771 46.125C104.771 35.5626 96.2876 27 85.8229 27C75.3583 27 66.875 35.5626 66.875 46.125C66.875 56.6874 75.3583 65.25 85.8229 65.25Z" fill="#F8BBD0"/>
<path d="M76.9062 54C89.8332 54 100.312 43.4227 100.312 30.375C100.312 17.3273 89.8332 6.75 76.9062 6.75C63.9793 6.75 53.5 17.3273 53.5 30.375C53.5 43.4227 63.9793 54 76.9062 54Z" fill="#F8BBD0"/>
<path d="M11.1457 49.5C11.1457 49.5 2.229 63 2.229 101.25C17.8332 101.25 53.4998 101.25 53.4998 101.25L53.3148 53.0032L11.1457 49.5Z" fill="#F8BBD0"/>
<path d="M54.6146 56.25C70.0038 56.25 82.4792 43.658 82.4792 28.125C82.4792 12.592 70.0038 0 54.6146 0C39.2254 0 26.75 12.592 26.75 28.125C26.75 43.658 39.2254 56.25 54.6146 56.25Z" fill="#F8BBD0"/>
<path d="M21.1769 65.25C31.6416 65.25 40.1248 56.6874 40.1248 46.125C40.1248 35.5626 31.6416 27 21.1769 27C10.7123 27 2.229 35.5626 2.229 46.125C2.229 56.6874 10.7123 65.25 21.1769 65.25Z" fill="#F8BBD0"/>
<path d="M30.0938 54C43.0207 54 53.5 43.4227 53.5 30.375C53.5 17.3273 43.0207 6.75 30.0938 6.75C17.1668 6.75 6.6875 17.3273 6.6875 30.375C6.6875 43.4227 17.1668 54 30.0938 54Z" fill="#F8BBD0"/>
<path d="M53.4998 101.25C70.7357 101.25 84.7082 86.0802 84.7082 67.3673C84.7082 48.6543 70.7357 33.4845 53.4998 33.4845C36.264 33.4845 22.2915 48.6543 22.2915 67.3673C22.2915 86.0802 36.264 101.25 53.4998 101.25Z" fill="#FFEBEE"/>
<path d="M51.271 36V42.75C51.271 42.75 54.2425 55.3455 65.3883 57.5955C76.5341 59.8455 82.3857 69.2212 77.9274 73.7212C83.2216 77.0962 89.1668 74.25 91.396 69.75C93.6252 65.25 98.0835 56.25 86.9377 40.5C75.7918 24.75 53.5002 24.75 51.271 36Z" fill="#F8BBD0"/>
<path d="M35.6354 36.0405C35.6354 36.0405 30.7401 55.5503 48.3684 63.1688C47.4143 58.7723 48.1611 51.6982 48.1611 51.6982C48.1611 51.6982 49.5922 58.293 61.9106 62.478C60.9565 58.0815 57.8245 54.1687 58.0942 44.8942C58.364 35.6197 51.6252 25.596 35.6354 36.0405Z" fill="#F8BBD0"/>
<path d="M46.8121 45.9788C46.8121 45.9788 18.6644 61.3305 33.2364 86.9828C24.4 86.1548 19.7567 78.5228 17.8441 70.2495C15.9314 61.9763 19.6675 40.7363 40.2539 30.0735C60.8402 19.4108 46.8121 45.9788 46.8121 45.9788Z" fill="#F8BBD0"/>
<path d="M53.4998 94.5C55.9621 94.5 57.9582 91.4779 57.9582 87.75C57.9582 84.0221 55.9621 81 53.4998 81C51.0376 81 49.0415 84.0221 49.0415 87.75C49.0415 91.4779 51.0376 94.5 53.4998 94.5Z" fill="#FFCDD2"/>
<path d="M57.9609 88.875C57.9141 88.875 57.8672 88.8727 57.8204 88.866C53.5627 88.326 49.2248 88.8592 49.1802 88.866C48.5761 88.9537 48.0143 88.5038 47.9363 87.8872C47.8583 87.2707 48.293 86.7105 48.9038 86.6317C49.0932 86.6092 53.5493 86.0557 58.0991 86.6317C58.7076 86.7082 59.1423 87.2707 59.0665 87.8895C58.9952 88.461 58.5137 88.875 57.9609 88.875Z" fill="#212121"/>
<path d="M45.9008 70.3935C41.7768 68.6813 38.1054 68.6723 34.3448 70.3688L33.4375 69.5565C34.9823 68.1795 37.3831 66.8408 40.1428 66.8678C42.7532 66.8948 45.1696 68.0198 46.8905 69.5025L45.9008 70.3935Z" fill="#8D6E63"/>
<path d="M72.6508 70.3935C68.5268 68.6813 64.8554 68.6723 61.0948 70.3688L60.1875 69.5565C61.7323 68.1795 64.1331 66.8408 66.8928 66.8678C69.5032 66.8948 71.9196 68.0198 73.6405 69.5025L72.6508 70.3935Z" fill="#8D6E63"/>
<path d="M53.4998 76.5C55.9621 76.5 57.9582 75.9963 57.9582 75.375C57.9582 74.7537 55.9621 74.25 53.4998 74.25C51.0376 74.25 49.0415 74.7537 49.0415 75.375C49.0415 75.9963 51.0376 76.5 53.4998 76.5Z" fill="#FFCDD2"/>
<path d="M6.89704 33.6443C6.89704 33.6443 11.8436 28.6515 18.6693 30.6203C16.2997 27.2453 9.26442 26.4713 6.6875 29.565L6.89704 33.6443Z" fill="#F48FB1"/>
<path d="M35.6665 7.488C35.6665 7.488 41.7967 9.315 44.4427 15.9255C44.3045 10.5818 40.8203 6.78375 38.8698 4.815C37.617 5.94 35.6665 7.488 35.6665 7.488Z" fill="#F48FB1"/>
<path d="M7.24463 59.0018C7.24463 59.0018 8.08057 52.4385 13.0026 47.6572C8.72925 50.094 6.13005 53.2823 4.73682 55.8135C5.94502 57.5033 7.24463 59.0018 7.24463 59.0018Z" fill="#F48FB1"/>
<path d="M100.056 33.6443C100.056 33.6443 95.1094 28.6515 88.2837 30.6203C90.6533 27.2453 97.6885 26.4713 100.265 29.565L100.056 33.6443Z" fill="#F48FB1"/>
<path d="M72.9586 7.11225C72.9586 7.11225 66.8284 8.9415 64.1802 15.5498C64.3206 10.206 67.8026 6.408 69.7531 4.43925C71.0081 5.56425 72.9586 7.11225 72.9586 7.11225Z" fill="#F48FB1"/>
<path d="M99.7086 59.0018C99.7086 59.0018 98.8727 52.4385 93.9507 47.6572C98.224 50.094 100.823 53.2823 102.216 55.8135C101.01 57.5033 99.7086 59.0018 99.7086 59.0018Z" fill="#F48FB1"/>
<path d="M67.06 31.815C62.7867 31.0657 56.8437 34.2517 55.3568 41.0017C53.705 48.5077 57.401 55.5322 63.3439 57.9712C71.8883 61.4745 83.0342 68.7532 77.8335 73.6267C79.2491 73.683 82.9606 73.6627 83.4533 72.1732C84.7083 68.3752 81.0547 62.4352 73.7698 58.4617C59.0706 50.445 59.0506 49.1715 59.3493 41.094C59.6302 33.597 67.06 31.815 67.06 31.815Z" fill="#F48FB1"/>
<path d="M55.7288 27C55.7288 27 43.0047 26.5658 38.8251 36.0338C34.6454 45.5018 43.4216 60.4913 48.3681 63.1688C41.8902 60.9705 30.6507 49.347 34.6454 35.4713C38.3213 23.0625 52.1064 24.093 55.7288 27Z" fill="#F48FB1"/>
<path d="M26.1929 34.533C7.38317 51.2212 11.7033 84.69 33.237 86.9827C31.7658 83.8462 30.6512 81.5962 30.6512 81.5962C25.1719 80.3767 7.5236 64.017 26.1929 34.533Z" fill="#F48FB1"/>
<path d="M82.2006 33.408C90.8387 43.4857 94.8779 69.9232 81.0861 71.19C79.2738 72.4567 77.8359 73.6267 77.8359 73.6267C90.56 82.7212 105.513 54.5467 82.2006 33.408Z" fill="#F48FB1"/>
<path d="M35.2944 55.7213C35.2944 55.7213 22.5703 63.783 26.4713 81.1283C29.2578 84.222 33.2369 86.985 33.2369 86.985C33.2369 86.985 24.0572 71.7525 35.2944 55.7213Z" fill="#F48FB1"/>
</svg>
