<svg width="108" height="108" viewBox="0 0 108 108" fill="none" xmlns="http://www.w3.org/2000/svg">
<path d="M76.5 47.25C76.5 47.25 88.875 55.7212 95.4382 65.5987C99.0945 64.1587 101.344 61.9087 101.344 61.9087C97.0312 57.033 88.245 48.699 76.5 47.25Z" fill="#880E4F"/>
<path d="M74.2456 47.9228C74.2456 47.9228 87.2304 48.204 96.3226 51.2685C98.5839 48.0533 99.2251 44.937 99.2251 44.937C99.2251 44.937 84.8769 43.6118 74.2456 47.9228Z" fill="#880E4F"/>
<path d="M17.028 39.7755C17.028 39.7755 1.28701 62.406 2.90475 76.2593C4.5225 90.1125 12.0983 100.125 46.3163 90.9788C36.2588 71.784 17.028 39.7755 17.028 39.7755Z" fill="#424242"/>
<path d="M63 83.25H42.75V101.25H63V83.25Z" fill="#AD1457"/>
<path d="M19.3296 31.0973C19.3296 31.0973 16.1594 62.829 17.6714 72.711C19.1834 82.593 21.5346 90.2768 36.8796 90.5963C52.2224 90.9135 66.3659 89.7683 72.5871 88.6185C78.8084 87.4688 85.8171 70.4025 81.5916 41.256C62.8761 33.6195 19.3296 31.0973 19.3296 31.0973Z" fill="#D81B60"/>
<path d="M15.5628 38.3377C15.5628 38.3377 0.355101 15.5655 28.0391 9.90224C55.7231 4.23899 80.4461 16.5555 86.2488 21.7845C92.0493 27.0135 94.9496 37.548 81.8501 46.512C75.4106 39.2017 29.2496 36 15.5628 38.3377Z" fill="#424242"/>
<path d="M69.588 42.7162C69.588 42.7162 68.6317 72.0472 72.8887 85.1422C76.2187 95.3775 80.1315 96.75 84.8565 96.75C98.2642 96.75 107.014 85.6755 102.132 74.25C98.2777 65.2297 78.9457 45.1755 78.9457 45.1755L69.588 42.7162Z" fill="#424242"/>
<path d="M29.25 51.75C34.2206 51.75 38.25 47.7206 38.25 42.75C38.25 37.7794 34.2206 33.75 29.25 33.75C24.2794 33.75 20.25 37.7794 20.25 42.75C20.25 47.7206 24.2794 51.75 29.25 51.75Z" fill="white"/>
<path d="M27 47.25C28.2426 47.25 29.25 46.2426 29.25 45C29.25 43.7574 28.2426 42.75 27 42.75C25.7574 42.75 24.75 43.7574 24.75 45C24.75 46.2426 25.7574 47.25 27 47.25Z" fill="#212121"/>
<path d="M58.5 54C63.4706 54 67.5 49.9706 67.5 45C67.5 40.0294 63.4706 36 58.5 36C53.5294 36 49.5 40.0294 49.5 45C49.5 49.9706 53.5294 54 58.5 54Z" fill="white"/>
<path d="M14.9765 42.7838C14.9765 42.7838 43.2185 33.4575 82.4765 48.5505C84.281 45.4658 85.901 43.1933 85.901 43.1933C85.901 43.1933 49.5703 26.7525 14.3218 36.2115C15.2353 40.0793 14.9765 42.7838 14.9765 42.7838Z" fill="#880E4F"/>
<path d="M56.25 47.25C57.4926 47.25 58.5 46.2426 58.5 45C58.5 43.7574 57.4926 42.75 56.25 42.75C55.0074 42.75 54 43.7574 54 45C54 46.2426 55.0074 47.25 56.25 47.25Z" fill="#212121"/>
<path d="M44.2957 75.1387C36.9652 75.1387 31.4595 73.1835 31.1175 73.0575C30.5325 72.846 30.231 72.2002 30.4447 71.6152C30.6562 71.0302 31.2997 70.731 31.887 70.9425C32.0062 70.9875 44.046 75.2467 55.8675 70.9425C56.457 70.7287 57.0982 71.0302 57.3097 71.6152C57.5235 72.2002 57.222 72.846 56.637 73.0575C52.3417 74.619 48.0757 75.1387 44.2957 75.1387Z" fill="#212121"/>
<path d="M45.39 53.9288C46.5559 53.4988 47.3268 52.6777 47.1118 52.0948C46.8968 51.5118 45.7774 51.3878 44.6115 51.8178C43.4456 52.2478 42.6748 53.0689 42.8898 53.6518C43.1047 54.2348 44.2242 54.3588 45.39 53.9288Z" fill="#212121"/>
<path d="M40.3608 53.6571C40.5758 53.0742 39.8049 52.2531 38.6391 51.8231C37.4732 51.3931 36.3538 51.5171 36.1388 52.1C35.9238 52.683 36.6946 53.5041 37.8605 53.9341C39.0264 54.3641 40.1458 54.2401 40.3608 53.6571Z" fill="#212121"/>
</svg>
