<svg width="108" height="108" viewBox="0 0 108 108" fill="none" xmlns="http://www.w3.org/2000/svg">
<path d="M54 4.5C31.6327 4.5 13.5 22.6327 13.5 45C13.5 69.75 4.5 67.5 4.5 101.25H103.5C103.5 76.5 94.5 67.5 94.5 45C94.5 22.6327 76.3672 4.5 54 4.5Z" fill="#81D4FA"/>
<path d="M60.75 83.25H47.25V101.25H60.75V83.25Z" fill="#039BE5"/>
<path d="M27 54V72.1193C27 80.2755 33.4688 85.1692 42.2955 86.886C50.157 87.9997 57.9645 88.074 65.7023 86.886C73.9688 85.4415 81 80.2755 81 72.1193V54H27Z" fill="#039BE5"/>
<path d="M59.8297 65.8935C55.6672 64.1813 51.9615 64.1723 48.1657 65.8688L47.25 65.0565C48.8092 63.6795 51.2325 62.3408 54.018 62.3678C56.6527 62.3948 59.0917 63.5198 60.8287 65.0025L59.8297 65.8935Z" fill="#01579B"/>
<path d="M48.2492 75.8677C52.4117 77.58 56.1174 77.589 59.9132 75.8925L60.8312 76.707C59.2719 78.084 56.8487 79.4227 54.0632 79.3957C51.4284 79.3687 48.9894 78.2437 47.2524 76.761L48.2492 75.8677Z" fill="#01579B"/>
<path d="M57.375 72H50.625C50.004 72 49.5 71.496 49.5 70.875C49.5 70.254 50.004 69.75 50.625 69.75H57.375C57.996 69.75 58.5 70.254 58.5 70.875C58.5 71.496 57.996 72 57.375 72Z" fill="#212121"/>
<path d="M33.75 58.5C39.9632 58.5 45 53.4632 45 47.25C45 41.0368 39.9632 36 33.75 36C27.5368 36 22.5 41.0368 22.5 47.25C22.5 53.4632 27.5368 58.5 33.75 58.5Z" fill="#81D4FA"/>
<path d="M47.25 58.5C53.4632 58.5 58.5 53.4632 58.5 47.25C58.5 41.0368 53.4632 36 47.25 36C41.0368 36 36 41.0368 36 47.25C36 53.4632 41.0368 58.5 47.25 58.5Z" fill="#81D4FA"/>
<path d="M60.75 58.5C66.9632 58.5 72 53.4632 72 47.25C72 41.0368 66.9632 36 60.75 36C54.5368 36 49.5 41.0368 49.5 47.25C49.5 53.4632 54.5368 58.5 60.75 58.5Z" fill="#81D4FA"/>
<path d="M74.25 58.5C80.4632 58.5 85.5 53.4632 85.5 47.25C85.5 41.0368 80.4632 36 74.25 36C68.0368 36 63 41.0368 63 47.25C63 53.4632 68.0368 58.5 74.25 58.5Z" fill="#81D4FA"/>
<path d="M22.5945 58.5C30.1025 58.5 36.189 52.4135 36.189 44.9055C36.189 37.3975 30.1025 31.311 22.5945 31.311C15.0865 31.311 9 37.3975 9 44.9055C9 52.4135 15.0865 58.5 22.5945 58.5Z" fill="#81D4FA"/>
<path d="M78.75 40.5C78.75 40.5 81 51.75 90 51.75C87.75 56.25 76.3583 62.2597 67.3133 56.3782C64.125 59.1682 58.9703 60.129 54 56.2837C51.0008 57.9712 47.952 60.7837 40.4055 56.2837C38.1555 58.0657 30.843 60.9705 25.4048 55.1587C25.4048 55.1587 32.0603 57.9712 40.4978 51.9705C44.7165 54.6885 47.3423 55.7212 53.9978 51.876C59.1548 55.5322 61.029 55.6267 67.311 52.2517C72.7718 55.5795 78.0458 56.2117 83.0385 53.19C81.4455 52.6275 77.9063 46.44 78.75 40.5Z" fill="#01579B"/>
</svg>
