<svg width="108" height="108" viewBox="0 0 108 108" fill="none" xmlns="http://www.w3.org/2000/svg">
<g clip-path="url(#clip0)">
<path d="M24.75 47.25C24.75 47.25 22.5023 51.75 22.5 54C18 54 4.5 54 4.5 76.5C4.5 76.5 4.5 101.25 38.25 101.25C72 101.25 85.5 78.75 85.5 78.75C85.5 78.75 90 72 90 67.5C90 63 81 24.75 49.5 24.75C18 24.75 24.75 47.25 24.75 47.25Z" fill="#FABEAC"/>
<path d="M65.25 90C65.25 90 69.75 94.5 81 94.5C99 94.5 96.75 72 96.75 72C96.75 72 103.5 69.75 103.5 58.5C103.5 47.25 94.5 45 94.5 45C99 40.5 99 33.75 99 33.75C99 20.7473 90 15.75 78.75 15.75C74.25 15.75 69.75 18 69.75 18C65.25 6.75 51.75 6.75 51.75 6.75C45 6.75 36 11.25 36 20.25C29.25 20.25 18 24.75 18 36C18 45 24.75 47.25 24.75 47.25C24.75 47.25 29.25 29.25 47.25 29.25C65.25 29.25 69.75 42.75 69.75 54C62.9977 56.25 63 60.75 63 63C63 63 63 67.5 67.5 67.5C72 67.5 72 60.75 78.75 60.75C85.5 60.75 85.5 69.75 85.5 69.75C85.5 69.75 85.5 81 74.25 81C69.75 81 69.75 78.75 69.75 78.75C69.75 78.75 65.25 83.25 65.25 90H65.25Z" fill="#5D4037"/>
<path d="M60.75 76.5C60.75 73.6493 60.0682 71.478 58.9297 69.84C55.9215 70.2338 52.1167 70.9178 47.25 72C28.8135 76.0973 30.8925 89.514 31.4122 91.8855C32.9557 92.1218 34.4992 92.25 36 92.25C47.25 92.25 60.75 85.5 60.75 76.5H60.75Z" fill="#EF5350"/>
<path d="M59.3145 70.4745C56.9813 66.438 52.1213 65.25 47.25 65.25C40.5 65.25 40.5 67.5 33.75 67.5C29.7855 67.5 29.3085 64.0103 24.6375 63.18C24.1853 63.9068 22.5 66.825 22.5 69.75C22.5 73.125 24.75 76.5 29.25 76.5C38.25 76.5 36 78.75 42.75 78.75C49.5 78.75 49.5 74.25 54 74.25C56.4278 74.25 58.1963 72.2857 59.3145 70.4745V70.4745Z" fill="white"/>
<path d="M36.0113 77.319C34.7085 76.8758 32.9175 76.5 29.25 76.5C24.75 76.5 22.5 73.125 22.5 69.75C22.5 66.825 24.1853 63.9068 24.6375 63.18C25.2 63.279 25.695 63.423 26.1495 63.5895C25.1843 63.234 24.0188 63 22.5 63C22.5 63 11.25 63 11.25 74.25C11.25 83.9993 21.3863 90.3555 31.4123 91.881C31.0388 90.18 29.9183 82.8585 36.0112 77.319L36.0113 77.319ZM41.625 38.25C40.203 38.25 39.3053 36 37.1228 36C36.7178 36 35.6423 36.6435 34.9943 37.2758C33.6668 38.5718 31.5315 38.5605 30.2265 37.2375C28.9238 35.9168 28.9215 33.7995 30.2333 32.4878C30.7733 31.9478 33.6488 29.25 37.1205 29.25C43.353 29.25 45 32.9288 45 34.875C45 36.7402 43.488 38.25 41.625 38.25V38.25ZM62.1968 42.75C60.9548 42.75 59.787 41.922 59.3325 40.581C59.0468 39.771 58.4888 39.0353 58.1513 38.8823C56.3243 38.052 55.377 38.25 54.0698 38.25C51.75 38.25 51.3248 36.009 52.0313 34.3485C52.767 32.6137 55.5188 30.0128 60.6308 32.5755C63.4838 34.002 64.8203 37.5885 65.061 38.2927C65.6438 40.0095 64.8337 41.913 63.252 42.5452C62.9032 42.6847 62.5478 42.75 62.1968 42.75V42.75ZM57.5753 37.1228C57.5753 37.125 57.5753 37.1273 57.573 37.1295C57.5753 37.1273 57.5753 37.125 57.5753 37.1228Z" fill="#212121"/>
<path d="M28.4662 47.5883C25.9393 52.9212 26.7602 58.604 30.2998 60.2811C33.8394 61.9583 38.7572 58.9947 41.2841 53.6618C43.811 48.3288 42.9901 42.646 39.4505 40.9689C35.911 39.2917 30.9931 42.2553 28.4662 47.5883Z" fill="white"/>
<path d="M46.4662 49.8383C43.9393 55.1712 44.7602 60.854 48.2998 62.5311C51.8394 64.2083 56.7572 61.2447 59.2841 55.9118C61.811 50.5788 60.9901 44.896 57.4505 43.2189C53.911 41.5417 48.9931 44.5053 46.4662 49.8383Z" fill="white"/>
<path d="M49.785 52.2238C49.179 54.0521 49.5675 55.8258 50.6527 56.1854C51.7379 56.5451 53.1088 55.3545 53.7148 53.5262C54.3207 51.698 53.9323 49.9243 52.8471 49.5646C51.7619 49.2049 50.391 50.3955 49.785 52.2238Z" fill="#212121"/>
<path d="M31.785 49.9738C31.179 51.8021 31.5675 53.5758 32.6527 53.9354C33.7379 54.2951 35.1088 53.1045 35.7148 51.2763C36.3208 49.448 35.9323 47.6743 34.8471 47.3146C33.7619 46.9549 32.391 48.1455 31.785 49.9738Z" fill="#212121"/>
<path d="M38.25 54C35.7647 54 33.75 56.0147 33.75 58.5C33.75 60.9853 35.7647 63 38.25 63C40.7353 63 42.75 60.9853 42.75 58.5C42.75 56.0147 40.7353 54 38.25 54Z" fill="#FFCCBC"/>
</g>
<defs>
<clipPath id="clip0">
<rect width="108" height="108" fill="white"/>
</clipPath>
</defs>
</svg>
