<svg width="26" height="26" viewBox="0 0 26 26" fill="none" xmlns="http://www.w3.org/2000/svg">
<path opacity="0.35" d="M13 26C20.1797 26 26 20.1797 26 13C26 5.8203 20.1797 0 13 0C5.8203 0 0 5.8203 0 13C0 20.1797 5.8203 26 13 26Z" fill="white"/>
<path d="M11.375 6.5C11.8742 6.5 12.3734 6.6898 12.7543 7.0707L17.3043 11.6207C18.0661 12.3812 18.0661 13.6175 17.3043 14.378L12.7543 18.928C11.9925 19.6898 10.7588 19.6898 9.99697 18.928C9.23517 18.1675 9.23517 16.9312 9.99697 16.1707L13.1677 13L9.99567 9.8293C9.23387 9.0688 9.23387 7.8325 9.99567 7.072C10.3766 6.6898 10.8758 6.5 11.375 6.5H11.375Z" fill="white"/>
</svg>
