<svg width="685" height="685" viewBox="0 0 685 685" fill="none" xmlns="http://www.w3.org/2000/svg">
<rect width="685" height="685" rx="150" fill="white"/>
<path d="M460.609 253.159H507.785C521.613 253.159 532.187 263.727 533 277.547V374.286C533 380.79 530.56 386.48 525.68 391.358L329.655 587.275L287.359 562.074L483.384 366.157V302.748H402.046C392.285 302.748 383.338 296.245 379.271 287.302C376.017 277.547 377.644 267.792 384.964 260.476L441.901 203.57C450.848 193.815 466.303 193.815 476.063 203.57C485.824 212.513 485.824 227.958 476.063 237.713L460.609 253.159Z" fill="#094067"/>
<path d="M264.256 99H385.787C399.609 99 410.179 109.564 410.179 123.379C410.179 137.194 399.61 147.759 385.788 147.759H304.481C245.941 147.759 198.784 194.892 198.784 253.403C198.784 303.787 233.745 345.232 280.09 356.609V261.53C280.09 247.715 290.659 237.15 304.481 237.15C318.303 237.15 328.873 247.715 328.873 261.53V383.427C328.873 397.242 318.303 407.806 304.481 407.806C219.11 407.806 150 338.731 150 253.403C150 212.771 178.598 123.379 264.256 99Z" fill="#094067"/>
</svg>
