<svg width="20" height="17" viewBox="0 0 20 17" fill="none" xmlns="http://www.w3.org/2000/svg">
<path opacity="0.35" d="M18.025 2H14.816C14.403 0.837 13.304 0 12 0H3C1.343 0 0 1.343 0 3V14C0 15.657 1.343 17 3 17H12C13.304 17 14.403 16.163 14.816 15H18.025C18.824 15 19.472 14.352 19.472 13.553V3.447C19.472 2.648 18.824 2 18.025 2Z" fill="white"/>
<path d="M3.5 6C4.32843 6 5 5.32843 5 4.5C5 3.67157 4.32843 3 3.5 3C2.67157 3 2 3.67157 2 4.5C2 5.32843 2.67157 6 3.5 6Z" fill="white"/>
<path d="M11.5 6C12.3284 6 13 5.32843 13 4.5C13 3.67157 12.3284 3 11.5 3C10.6716 3 10 3.67157 10 4.5C10 5.32843 10.6716 6 11.5 6Z" fill="white"/>
<path d="M17 0H12C13.657 0 15 1.343 15 3V14C15 15.657 13.657 17 12 17H17C18.657 17 20 15.657 20 14V3C20 1.343 18.657 0 17 0ZM17 6C16.448 6 16 5.328 16 4.5C16 3.672 16.448 3 17 3C17.552 3 18 3.672 18 4.5C18 5.328 17.552 6 17 6ZM18 14C17.448 14 17 13.328 17 12.5C17 11.672 17.448 11 18 11C18.552 11 19 11.672 19 12.5C19 13.328 18.552 14 18 14Z" fill="white"/>
<path d="M3.5 14C4.32843 14 5 13.3284 5 12.5C5 11.6716 4.32843 11 3.5 11C2.67157 11 2 11.6716 2 12.5C2 13.3284 2.67157 14 3.5 14Z" fill="white"/>
<path d="M11.5 14C12.3284 14 13 13.3284 13 12.5C13 11.6716 12.3284 11 11.5 11C10.6716 11 10 11.6716 10 12.5C10 13.3284 10.6716 14 11.5 14Z" fill="white"/>
</svg>
