<svg width="19" height="21" viewBox="0 0 19 21" fill="none" xmlns="http://www.w3.org/2000/svg">
<path d="M5 6C5 3.791 6.791 2 9 2C11.209 2 13 3.791 13 6H15C15 2.686 12.314 0 9 0C5.686 0 3 2.686 3 6H5Z" fill="white"/>
<path d="M9 11C7.895 11 7 11.895 7 13C7 14.105 7.895 15 9 15C10.105 15 11 14.105 11 13C11 11.895 10.105 11 9 11Z" fill="white"/>
<path opacity="0.35" d="M18 9V17C18.1667 18.1667 17.8 20.4 15 20H3C1.343 20 0 18.657 0 17V9C0 7.343 1.343 6 3 6H15C16.657 6 18 7.343 18 9Z" fill="white"/>
</svg>
