<svg width="118" height="74" viewBox="0 0 118 74" fill="none" xmlns="http://www.w3.org/2000/svg">
<path d="M114.979 18.5136H109.328L111.179 16.6623C112.349 15.493 112.349 13.6416 111.179 12.5698C110.01 11.4005 108.159 11.4005 107.087 12.5698L100.266 19.3906C99.389 20.2675 99.1941 21.4368 99.5839 22.6061C100.071 23.6779 101.143 24.4575 102.312 24.4575H112.056V32.0578L88.5732 55.5409L76.8803 68.2081C75.8085 69.3774 75.9059 71.2287 77.0752 72.3006C77.6599 72.7878 78.3419 73.0801 79.024 73.0801C79.8035 73.0801 80.5831 72.7878 81.1677 72.1057L87.7936 64.8951V70.0594C87.7936 71.7159 89.0604 72.9827 90.7168 72.9827C92.3733 72.9827 93.64 71.7159 93.64 70.0594V58.5615L117.123 35.0784C117.708 34.4938 118 33.8117 118 33.0322V21.4368C117.903 19.7803 116.636 18.5136 114.979 18.5136V18.5136Z" fill="#C6C6C7"/>
<path d="M100.363 2.21294e-05H51.6433C47.161 2.21294e-05 42.6788 0.584665 38.3914 1.85138C26.1139 5.45667 16.3699 13.7391 10.621 24.3601H7.7952C6.72337 24.3601 5.8464 23.4831 5.8464 22.4113C5.8464 21.8266 6.13872 21.4369 6.33361 21.1445C7.40544 19.8778 7.21057 18.0264 5.94384 17.052C4.67713 15.9802 2.82576 16.1751 1.85136 17.4418C0.682077 18.806 0 20.5599 0 22.4112C0 26.6986 3.50784 30.2065 7.79521 30.2065H7.99009C4.77456 38.5863 3.89761 48.038 5.94384 57.3923L8.86705 70.7416C9.15937 72.1057 10.3287 73.0801 11.6928 73.0801C11.8877 73.0801 12.0826 73.0801 12.2775 72.9827C13.8365 72.5929 14.8109 71.0339 14.5186 69.4748L11.5954 56.1255C6.91825 34.7861 19.3906 13.3493 39.9505 7.40546C43.7506 6.33361 47.6482 5.74897 51.6433 5.74897H77.1726C74.0545 9.15937 72.1057 13.6416 72.1057 18.5136C72.1057 28.7448 80.3881 37.0272 90.6193 37.0272C92.2758 37.0272 93.5425 35.7605 93.5425 34.104V19.488C93.5425 17.8315 92.2758 16.5648 90.6193 16.5648C88.9628 16.5648 87.6961 17.8315 87.6961 19.488V30.8885C82.142 29.5244 77.9521 24.5549 77.9521 18.5136C77.9521 11.4979 83.6036 5.84641 90.6193 5.84641H100.363C102.02 5.84641 103.287 4.57968 103.287 2.9232C103.287 1.26673 102.02 0 100.363 0L100.363 2.21294e-05Z" fill="#C6C6C7"/>
<path d="M67.2337 44.8225C65.5772 44.8225 64.3105 46.0892 64.3105 47.7457V54.5665H48.2328C46.5764 54.5665 45.3096 55.8332 45.3096 57.4897C45.3096 59.1462 46.5764 60.4129 48.2328 60.4129H64.3105V70.1569C64.3105 71.8134 65.5772 73.0801 67.2337 73.0801C68.8901 73.0801 70.1569 71.8134 70.1569 70.1569V47.7457C70.1569 46.0892 68.8901 44.8225 67.2337 44.8225H67.2337ZM46.8687 46.6738C45.6994 45.5045 43.848 45.5045 42.7762 46.6738L34.0066 55.4434L21.3394 68.1107C20.1701 69.2799 20.1701 71.1313 21.3394 72.2031C21.924 72.7878 22.7035 73.0801 23.3856 73.0801C24.0677 73.0801 24.8472 72.7878 25.4318 72.2031L33.1296 64.5054V70.1569C33.1296 71.8134 34.3963 73.0801 36.0528 73.0801C37.7093 73.0801 38.976 71.8134 38.976 70.1569V58.659L46.8687 50.7663C48.038 49.597 48.038 47.8431 46.8687 46.6738Z" fill="#C6C6C7"/>
</svg>
