<svg width="114" height="104" viewBox="0 0 114 104" fill="none" xmlns="http://www.w3.org/2000/svg">
<path d="M29.4604 62.0319L35.2852 67.8567L12.4689 90.6703L6.64404 84.8455L29.4604 62.0319Z" fill="url(#paint0_linear)"/>
<path d="M35.2853 67.8567L41.1102 73.6816L18.2939 96.4952L12.469 90.6703L35.2853 67.8567Z" fill="url(#paint1_linear)"/>
<path d="M103.104 2.35815C103.113 2.41244 103.132 2.4613 103.134 2.51558C103.132 2.46129 103.113 2.41244 103.104 2.35815Z" fill="#9FA8DA"/>
<path d="M99.942 0.0455901L75.3315 5.05617C74.0151 5.29502 72.8317 6.01431 72.012 7.07289L29.3596 62.1323L35.1845 67.9571L102.347 0.797446C101.747 0.197586 100.873 -0.12541 99.942 0.0455901Z" fill="#90A4AE"/>
<path d="M18.9993 103.142C17.6096 103.142 16.2226 102.613 15.1613 101.552L1.58989 87.9804C-0.529964 85.8605 -0.529964 82.4242 1.58989 80.3044C3.70975 78.1845 7.14604 78.1845 9.26591 80.3044L22.8374 93.8758C24.9572 95.9957 24.9572 99.432 22.8374 101.552C21.7761 102.613 20.3891 103.142 18.9994 103.142H18.9993Z" fill="url(#paint2_linear)"/>
<path d="M41.0092 73.7819L96.0686 31.1296C97.1271 30.3099 97.8464 29.1264 98.0853 27.81L103.096 3.19954C103.264 2.26582 102.944 1.39453 102.344 0.794678L35.1843 67.9571L41.0092 73.7819Z" fill="#64717C"/>
<path d="M48.8565 84.1424C47.4668 84.1424 46.0798 83.6131 45.0185 82.5518L20.5899 58.1232C18.47 56.0033 18.47 52.5671 20.5899 50.4472C22.7098 48.3273 26.146 48.3273 28.2659 50.4472L52.6945 74.8758C54.8144 76.9957 54.8144 80.4319 52.6945 82.5518C51.6332 83.6131 50.2462 84.1424 48.8565 84.1424H48.8565Z" fill="url(#paint3_linear)"/>
<path d="M84.5391 62.0319L78.7141 67.8567L101.531 90.6703L107.356 84.8455L84.5391 62.0319Z" fill="url(#paint4_linear)"/>
<path d="M78.7141 67.8567L72.8891 73.6816L95.706 96.4952L101.531 90.6703L78.7141 67.8567Z" fill="url(#paint5_linear)"/>
<path d="M10.8928 2.35815C10.8854 2.41244 10.8682 2.4613 10.8658 2.51558C10.8682 2.46129 10.8854 2.41244 10.8928 2.35815Z" fill="#9FA8DA"/>
<path d="M14.0558 0.0455901L38.6669 5.05617C39.9833 5.29502 41.1668 6.01431 41.9865 7.07289L84.6399 62.1323L78.8149 67.9571L11.6509 0.797446C12.2508 0.197586 13.1248 -0.12541 14.0558 0.0455901Z" fill="#90A4AE"/>
<path d="M95.0002 103.142C96.3899 103.142 97.777 102.613 98.8383 101.552L112.41 87.9804C114.53 85.8605 114.53 82.4242 112.41 80.3044C110.29 78.1845 106.854 78.1845 104.734 80.3044L91.1621 93.8758C89.0422 95.9957 89.0422 99.432 91.1621 101.552C92.2234 102.613 93.6104 103.142 95.0002 103.142H95.0002Z" fill="url(#paint6_linear)"/>
<path d="M72.9892 73.7819L17.9285 31.1296C16.8699 30.3099 16.1506 29.1264 15.9117 27.81L10.901 3.19954C10.7327 2.26582 11.053 1.39453 11.6529 0.794678L78.8142 67.9571L72.9892 73.7819Z" fill="#64717C"/>
<path d="M65.1428 84.1425C66.5325 84.1425 67.9196 83.6132 68.9809 82.5519L93.4101 58.1233C95.53 56.0035 95.53 52.5672 93.4101 50.4473C91.2902 48.3275 87.8538 48.3275 85.7339 50.4473L61.3047 74.8759C59.1848 76.9958 59.1848 80.4321 61.3047 82.5519C62.366 83.6132 63.753 84.1425 65.1428 84.1425H65.1428Z" fill="url(#paint7_linear)"/>
<defs>
<linearGradient id="paint0_linear" x1="23.3451" y1="78.7302" x2="37.8041" y2="93.1919" gradientUnits="userSpaceOnUse">
<stop stop-color="#F09801"/>
<stop offset="1" stop-color="#E36001"/>
</linearGradient>
<linearGradient id="paint1_linear" x1="18.2721" y1="73.6598" x2="29.4903" y2="84.8753" gradientUnits="userSpaceOnUse">
<stop stop-color="#F09801"/>
<stop offset="1" stop-color="#E36001"/>
</linearGradient>
<linearGradient id="paint2_linear" x1="12.2136" y1="78.7138" x2="12.2136" y2="103.142" gradientUnits="userSpaceOnUse">
<stop stop-color="#FFDA1C"/>
<stop offset="1" stop-color="#FEB705"/>
</linearGradient>
<linearGradient id="paint3_linear" x1="36.6422" y1="37.5896" x2="36.6422" y2="98.8403" gradientUnits="userSpaceOnUse">
<stop stop-color="#FFDA1C"/>
<stop offset="1" stop-color="#FEB705"/>
</linearGradient>
<linearGradient id="paint4_linear" x1="90.6545" y1="78.7302" x2="76.1955" y2="93.1922" gradientUnits="userSpaceOnUse">
<stop stop-color="#F09801"/>
<stop offset="1" stop-color="#E36001"/>
</linearGradient>
<linearGradient id="paint5_linear" x1="95.7277" y1="73.6598" x2="84.5096" y2="84.8756" gradientUnits="userSpaceOnUse">
<stop stop-color="#F09801"/>
<stop offset="1" stop-color="#E36001"/>
</linearGradient>
<linearGradient id="paint6_linear" x1="101.786" y1="78.7138" x2="101.786" y2="103.142" gradientUnits="userSpaceOnUse">
<stop stop-color="#FFDA1C"/>
<stop offset="1" stop-color="#FEB705"/>
</linearGradient>
<linearGradient id="paint7_linear" x1="77.3574" y1="37.5897" x2="77.3574" y2="98.8404" gradientUnits="userSpaceOnUse">
<stop stop-color="#FFDA1C"/>
<stop offset="1" stop-color="#FEB705"/>
</linearGradient>
</defs>
</svg>
