<svg width="268" height="208" viewBox="0 0 268 208" fill="none" xmlns="http://www.w3.org/2000/svg">
<path d="M212.2 108.005L116.039 13.0441C112.149 9.20279 107.201 6.58994 101.807 5.52646L74.7636 0.181583C69.017 -0.955238 63.6603 3.39034 63.6603 9.17527V33.1951C63.6603 40.0343 66.2412 46.6352 70.9016 51.6959L165.781 153.844L212.2 108.005Z" fill="#64717C" fill-opacity="0.35"/>
<path d="M147.434 167.223L227.12 87.5379C233.79 80.8671 244.593 80.8671 251.264 87.5379C257.935 94.1973 257.935 105.023 251.264 111.682L223.5 139.458L262.898 178.857C269.569 185.517 269.569 196.342 262.898 203.002C259.563 206.337 255.192 207.999 250.82 207.999C246.449 207.999 242.078 206.337 238.742 203.002L199.355 163.603L171.59 191.368C168.255 194.703 163.884 196.365 159.512 196.365C155.141 196.365 150.77 194.703 147.434 191.368C140.764 184.708 140.764 173.882 147.434 167.223H147.434Z" fill="url(#paint0_linear)"/>
<path d="M55.7019 108.005L151.863 13.0441C155.752 9.20279 160.701 6.58994 166.095 5.52646L193.138 0.181583C198.885 -0.955238 204.241 3.39034 204.241 9.17527V33.1951C204.241 40.0343 201.66 46.6352 197 51.6959L102.12 153.844L55.7019 108.005Z" fill="#465055"/>
<path d="M120.467 167.223L40.7817 87.5379C34.1109 80.8671 23.3079 80.8671 16.6371 87.5379C9.96633 94.1973 9.96633 105.023 16.6371 111.682L44.4017 139.458L5.0031 178.857C-1.6677 185.517 -1.6677 196.342 5.0031 203.002C8.33848 206.337 12.7098 207.999 17.0811 207.999C21.4524 207.999 25.8237 206.337 29.1591 203.002L68.5463 163.603L96.3109 191.368C99.6463 194.703 104.018 196.365 108.389 196.365C112.76 196.365 117.132 194.703 120.467 191.368C127.138 184.708 127.138 173.882 120.467 167.223H120.467Z" fill="url(#paint1_linear)"/>
<defs>
<linearGradient id="paint0_linear" x1="205.166" y1="82.5313" x2="205.166" y2="207.999" gradientUnits="userSpaceOnUse">
<stop stop-color="#FFDA1C"/>
<stop offset="1" stop-color="#FEB705"/>
</linearGradient>
<linearGradient id="paint1_linear" x1="62.735" y1="82.5313" x2="62.735" y2="207.999" gradientUnits="userSpaceOnUse">
<stop stop-color="#FFDA1C"/>
<stop offset="1" stop-color="#FEB705"/>
</linearGradient>
</defs>
</svg>
