<svg xmlns="http://www.w3.org/2000/svg" viewBox="0 0 172 172"><defs/><defs><linearGradient id="a" x1="52.96167" x2="75.28942" y1="1.96725" y2="55.126" gradientUnits="userSpaceOnUse"><stop offset="0" stop-color="#55c8aa"/><stop offset=".544" stop-color="#4cc0a6"/><stop offset="1" stop-color="#41b6a1"/></linearGradient><linearGradient id="b" x1="76.27483" x2="93.2885" y1="12.32667" y2="87.93142" gradientUnits="userSpaceOnUse"><stop offset="0" stop-color="#f6f6f6"/><stop offset=".228" stop-color="#edeeef"/><stop offset=".595" stop-color="#d6d9db"/><stop offset="1" stop-color="#b4bbc0"/></linearGradient></defs><g fill="none" stroke-linecap="none" stroke-miterlimit="10" stroke-width="none" font-family="none" font-size="none" font-weight="none" style="mix-blend-mode:normal" text-anchor="none"><path d="M0 172V0h172v172z"/><path stroke="#176758" stroke-linecap="round" stroke-width="10.75" d="M19.70833 130.79167c0-18.80175 15.23992-37.625 34.04167-37.625"/><path stroke="#176758" stroke-linecap="round" stroke-width="11.0295" d="M154.08333 66.29167c0 18.80175-16.04258 34.04167-35.83333 34.04167"/><path stroke="#176758" stroke-linecap="round" stroke-width="10.75" d="M62.70833 130.79167v28.66667M109.29167 130.79167v28.66667"/><path fill="url(#a)" d="M127.80675 143.33333h-83.6135c-4.61892 0-8.35992-3.30025-8.35992-7.37808V25.29475c0-4.07783 3.741-7.37808 8.35992-7.37808h83.60992c4.6225 0 8.3635 3.30025 8.3635 7.37808v110.6605c0 4.07783-3.741 7.37808-8.35992 7.37808z"/><path fill="url(#b)" d="M121.03783 82.41667H50.96216c-2.41517 0-4.37883-1.85258-4.37883-4.13517V32.80183c0-2.28258 1.96367-4.13517 4.37883-4.13517h70.07567c2.41517 0 4.37883 1.85258 4.37883 4.13517V78.2815c0 2.28258-1.96367 4.13517-4.37883 4.13517z"/><path fill="#272727" d="M50.16667 89.58333h43c1.978 0 3.58333 1.60533 3.58333 3.58333 0 1.978-1.60533 3.58333-3.58333 3.58333h-43c-1.978 0-3.58333-1.60533-3.58333-3.58333 0-1.978 1.60533-3.58333 3.58333-3.58333z"/><circle cx="34" cy="26" r="1" fill="#272727" transform="scale(3.58333)"/><path fill="#fac600" d="M73.45833 114.66667h-5.375v-5.375c0-.989-.80267-1.79167-1.79167-1.79167h-3.58333c-.989 0-1.79167.80267-1.79167 1.79167v5.375h-5.375c-.989 0-1.79167.80267-1.79167 1.79167v3.58333c0 .989.80267 1.79167 1.79167 1.79167h5.375v5.375c0 .989.80267 1.79167 1.79167 1.79167h3.58333c.989 0 1.79167-.80267 1.79167-1.79167v-5.375h5.375c.989 0 1.79167-.80267 1.79167-1.79167v-3.58333c0-.989-.80267-1.79167-1.79167-1.79167z"/><path fill="#c22300" d="M111.08333 111.08333c-3.95958 0-7.16667 3.20708-7.16667 7.16667 0 3.95958 3.20708 7.16667 7.16667 7.16667 3.95958 0 7.16667-3.20708 7.16667-7.16667 0-3.95958-3.20708-7.16667-7.16667-7.16667z"/><circle cx="18" cy="14" r="1" fill="#272727" transform="scale(3.58333)"/><circle cx="30" cy="14" r="1" fill="#272727" transform="scale(3.58333)"/><path fill="#272727" d="M86 62.42167c-7.955 0-14.33333-3.29667-14.33333 0 0 2.40083 1.75583 5.98417 6.5575 7.91917 1.935-1.3975 4.69417-2.2575 7.77583-2.2575 3.08167 0 5.84083.86 7.77583 2.2575 4.80167-1.935 6.5575-5.51833 6.5575-7.91917 0-3.29667-6.41417 0-14.33333 0z"/><path fill="#d75b60" d="M93.77583 70.34083C91.76916 71.165 89.18916 71.66666 86 71.66666c-3.18917 0-5.76917-.50167-7.77583-1.32583 1.935-1.3975 4.69417-2.2575 7.77583-2.2575 3.08167 0 5.84083.86 7.77583 2.2575z"/><path fill="#151515" d="M121.03783 28.66667c2.41517 0 4.37883 1.85258 4.37883 4.13517v45.47967c0 2.28258-1.96367 4.13517-4.37883 4.13517H50.96216c-2.41517 0-4.37883-1.85258-4.37883-4.13517V32.80184c0-2.28258 1.96367-4.13517 4.37883-4.13517h70.07567m0-3.58334H50.96216c-4.38958 0-7.96217 3.4615-7.96217 7.7185V78.2815c0 4.257 3.57258 7.7185 7.96217 7.7185h70.07567C125.42741 86 129 82.5385 129 78.2815V32.80183c0-4.257-3.57258-7.7185-7.96217-7.7185zM66.29167 107.5c.989 0 1.79167.80267 1.79167 1.79167v5.375h5.375c.989 0 1.79167.80267 1.79167 1.79167v3.58333c0 .989-.80267 1.79167-1.79167 1.79167h-5.375v5.375c0 .989-.80267 1.79167-1.79167 1.79167h-3.58333c-.989 0-1.79167-.80267-1.79167-1.79167v-5.375h-5.375c-.989 0-1.79167-.80267-1.79167-1.79167v-3.58333c0-.989.80267-1.79167 1.79167-1.79167h5.375v-5.375c0-.989.80267-1.79167 1.79167-1.79167h3.58333m0-4.3h-3.58333c-3.35758 0-6.09167 2.73408-6.09167 6.09167v1.075h-1.075c-3.35758 0-6.09167 2.73408-6.09167 6.09167v3.58333c0 3.35758 2.73408 6.09167 6.09167 6.09167h1.075v1.075c0 3.35758 2.73408 6.09167 6.09167 6.09167h3.58333c3.35758 0 6.09167-2.73408 6.09167-6.09167v-1.075h1.075c3.35758 0 6.09167-2.73408 6.09167-6.09167v-3.58333c0-3.35758-2.73408-6.09167-6.09167-6.09167h-1.075v-1.075c0-3.35758-2.73408-6.09167-6.09167-6.09167zM111.08333 111.08333c3.95958 0 7.16667 3.20708 7.16667 7.16667 0 3.95958-3.20708 7.16667-7.16667 7.16667-3.95958 0-7.16667-3.20708-7.16667-7.16667 0-3.95958 3.20708-7.16667 7.16667-7.16667m0-3.58333c-5.92683 0-10.75 4.82317-10.75 10.75s4.82317 10.75 10.75 10.75 10.75-4.82317 10.75-10.75-4.82317-10.75-10.75-10.75z" opacity=".05"/><path fill="#151515" d="M121.03783 28.66667c2.41517 0 4.37883 1.85258 4.37883 4.13517v45.47967c0 2.28258-1.96367 4.13517-4.37883 4.13517H50.96216c-2.41517 0-4.37883-1.85258-4.37883-4.13517V32.80184c0-2.28258 1.96367-4.13517 4.37883-4.13517h70.07567m0-1.79167H50.96216c-3.40417 0-6.1705 2.65883-6.1705 5.92683V78.2815c0 3.268 2.76992 5.92683 6.1705 5.92683h70.07567c3.40417 0 6.1705-2.65883 6.1705-5.92683V32.80183c0-3.268-2.76992-5.92683-6.1705-5.92683zM66.29167 107.5c.989 0 1.79167.80267 1.79167 1.79167v5.375h5.375c.989 0 1.79167.80267 1.79167 1.79167v3.58333c0 .989-.80267 1.79167-1.79167 1.79167h-5.375v5.375c0 .989-.80267 1.79167-1.79167 1.79167h-3.58333c-.989 0-1.79167-.80267-1.79167-1.79167v-5.375h-5.375c-.989 0-1.79167-.80267-1.79167-1.79167v-3.58333c0-.989.80267-1.79167 1.79167-1.79167h5.375v-5.375c0-.989.80267-1.79167 1.79167-1.79167h3.58333m0-2.15h-3.58333c-2.17508 0-3.94167 1.76658-3.94167 3.94167v3.225h-3.225c-2.17508 0-3.94167 1.76658-3.94167 3.94167v3.58333c0 2.17508 1.76658 3.94167 3.94167 3.94167h3.225v3.225c0 2.17508 1.76658 3.94167 3.94167 3.94167h3.58333c2.17508 0 3.94167-1.76658 3.94167-3.94167v-3.225h3.225c2.17508 0 3.94167-1.76658 3.94167-3.94167v-3.58333c0-2.17508-1.76658-3.94167-3.94167-3.94167h-3.225v-3.225c0-2.17508-1.76658-3.94167-3.94167-3.94167zM111.08333 111.08333c3.95958 0 7.16667 3.20708 7.16667 7.16667 0 3.95958-3.20708 7.16667-7.16667 7.16667-3.95958 0-7.16667-3.20708-7.16667-7.16667 0-3.95958 3.20708-7.16667 7.16667-7.16667m0-1.79166c-4.93783 0-8.95833 4.0205-8.95833 8.95833 0 4.94142 4.0205 8.95833 8.95833 8.95833s8.95833-4.01692 8.95833-8.95833c0-4.93783-4.0205-8.95833-8.95833-8.95833z" opacity=".05"/></g></svg>