<svg xmlns="http://www.w3.org/2000/svg" viewBox="0 0 172 172"><defs/><defs><linearGradient id="a" x1="48.246" x2="89.19633" y1="13.2655" y2="121.22775" gradientUnits="userSpaceOnUse"><stop offset="0" stop-color="#f28aaf"/><stop offset="1" stop-color="#ef4c96"/></linearGradient><linearGradient id="b" x1="83.93958" x2="87.24342" y1="13.84958" y2="61.99883" gradientUnits="userSpaceOnUse"><stop offset=".491" stop-color="#fac600"/><stop offset="1" stop-color="#d66b00"/></linearGradient><linearGradient id="c" x1="80.625" x2="91.375" y1="12.54167" y2="12.54167" gradientUnits="userSpaceOnUse"><stop offset="0" stop-color="#2e9f4e"/><stop offset="1" stop-color="#1c7130"/></linearGradient><linearGradient id="d" x1="86" x2="86" y1="119.07775" y2="132.18917" gradientUnits="userSpaceOnUse"><stop offset="0" stop-color="#805fc3"/><stop offset="1" stop-color="#59228a"/></linearGradient></defs><g style="mix-blend-mode:normal" fill="none" stroke-miterlimit="10" font-family="none" font-size="none" font-weight="none" text-anchor="none"><path d="M0 172V0h172v172z"/><path fill="#71003f" d="M46.58333 89.58333v34.75833h78.83333V89.58333zM86 96.75c3.08167 0 5.84083.86 7.77583 2.2575-2.00667.82417-4.58667 1.32583-7.77583 1.32583-3.18917 0-5.76917-.50167-7.77583-1.32583C80.15917 97.61 82.91834 96.75 86 96.75z"/><path fill="#fabfc7" d="M46.58333 64.5c0 8.45667 2.22167 17.27167 6.1275 25.08333 1.32583 2.75917 2.9025 5.375 4.6225 7.77583 1.11083 1.6125 2.32917 3.1175 3.58333 4.55083 4.15667 4.69417 8.99417 8.385 14.33333 10.57083 3.40417 1.3975 7.02333 2.18583 10.75 2.18583 3.72667 0 7.34583-.78833 10.75-2.18583 5.33917-2.18583 10.17667-5.87667 14.33333-10.57083 1.25417-1.43333 2.4725-2.93833 3.58333-4.55083 1.72-2.40083 3.29667-5.01667 4.6225-7.77583 3.90583-7.81167 6.1275-16.62667 6.1275-25.08333 0-23.7575-78.83333-23.7575-78.83333 0zM86 100.33333c-3.18917 0-5.76917-.50167-7.77583-1.32583C80.15917 97.61 82.91834 96.75 86 96.75c3.08167 0 5.84083.86 7.77583 2.2575-2.00667.82417-4.58667 1.32583-7.77583 1.32583z"/><path fill="url(#a)" d="M150.5 93.16667V149.64c0 4.44333-3.58333 8.02667-8.02667 8.02667h-27.80667V75.25s0-10.75-28.66667-10.75-28.66667 10.75-28.66667 10.75v82.41667H29.52665c-4.44333 0-8.02667-3.58333-8.02667-8.02667V93.16667c0-15.40833 3.18917-28.20083 8.4925-38.52083.14333-.28667.3225-.60917.50167-.89583.3225-.60917.645-1.21833 1.00333-1.79167.35833-.60917.71667-1.21833 1.075-1.79167h.03583V50.095c2.61583-4.15667 5.59-7.81167 8.9225-11.03667l.03583-.03583c.82417-.82417 1.64833-1.6125 2.50833-2.365.86-.7525 1.75583-1.46917 2.65167-2.15 6.45-4.98083 13.72417-8.4925 21.35667-10.57083 2.86667-.82417 5.73333-1.3975 8.67167-1.79167h.03583c.82417-.14333 1.64833-.215 2.50833-.28667.78833-.1075 1.57667-.17917 2.365-.215 1.43333-.1075 2.9025-.14333 4.33583-.14333 1.3975 0 2.795.03583 4.1925.1075.7525.03583 1.54083.07167 2.29333.14333.82417.07167 1.64833.14333 2.4725.25083h.03583c12.07583 1.36167 23.04083 5.51833 31.96333 12.685.03583 0 .03583.03583.03583.03583.93167.71667 1.8275 1.505 2.72333 2.29333.89583.82417 1.79167 1.72 2.65167 2.61583l.03583.03583c2.97417 3.08167 5.59 6.5575 7.8475 10.46333h.03583l.03583.03583c.3225.57333.645 1.14667.9675 1.75583.3225.57333.645 1.1825.93167 1.79167.14333.25083.28667.5375.43.82417 5.01667 10.32 7.8475 23.14833 7.8475 38.62833z"/><path fill="url(#b)" d="M140.2875 50.13083h-.03583c-.1075-.03583-.28667-.07167-.57333-.14333-.25083-.07167-.60917-.14333-1.075-.25083-.1075-.03583-.17917-.07167-.28667-.1075-.28667-.07167-.57333-.14333-.89583-.215-.1075 0-.25083-.03583-.35833-.07167-.25083-.07167-.50167-.1075-.7525-.17917-.17917-.07167-.35833-.1075-.57333-.14333-.57333-.14333-1.1825-.28667-1.8275-.43-1.3975-.3225-3.01-.645-4.76583-1.00333-.82417-.17917-1.72-.35833-2.61583-.5375-.82417-.14333-1.72-.28667-2.61583-.46583-.60917-.1075-1.25417-.215-1.89917-.3225-1.3975-.25083-2.9025-.50167-4.44333-.71667-1.54083-.25083-3.1175-.46583-4.76583-.68083-.71667-.1075-1.46917-.215-2.22167-.28667-.1075-.03583-.25083-.03583-.39417-.03583-.93167-.14333-1.89917-.25083-2.86667-.35833-.43-.03583-.89583-.07167-1.32583-.1075-.60917-.07167-1.21833-.1075-1.8275-.17917-2.22167-.215-4.515-.39417-6.84417-.5375-3.655-.215-7.45333-.35833-11.32333-.35833-1.46917 0-2.93833 0-4.37167.07167-1.21833 0-2.4725.07167-3.655.1075-.215 0-.39417.03583-.60917.03583-.68083.03583-1.36167.07167-2.00667.1075-.7525.03583-1.505.07167-2.2575.14333-1.64833.1075-3.29667.215-4.90917.39417-.14333 0-.25083.03583-.39417.03583-1.36167.1075-2.72333.25083-4.04917.43-.39417 0-.78833.07167-1.1825.1075-1.21833.14333-2.365.28667-3.51167.46583-.71667.07167-1.43333.17917-2.11417.28667-2.365.3225-4.6225.68083-6.70083 1.075-.39417.07167-.7525.14333-1.14667.215-1.21833.215-2.365.43-3.47583.645-1.36167.25083-2.65167.5375-3.79833.78833-.71667.17917-1.3975.3225-2.0425.46583-.25083.07167-.46583.1075-.68083.14333-.57333.1075-1.14667.25083-1.64833.39417-.35833.07167-.71667.17917-1.00333.25083-.25083.03583-.5375.1075-.7525.17917-.25083.07167-.46583.1075-.68083.17917-.35833.07167-.68083.17917-.93167.25083-.215.07167-.39417.1075-.57333.14333-.28667.07167-.50167.14333-.645.17917-.14333.03583-.215.07167-.25083.07167h-.03583s0-.03583.03583-.07167c.03583-.1075.07167-.28667.14333-.5375.07167-.25083.17917-.57333.28667-.93167.14333-.39417.25083-.78833.43-1.25417.1075-.3225.215-.645.3225-1.00333.25083-.57333.50167-1.21833.7525-1.8275.215-.46583.46583-.93167.68083-1.32583.46583-.86.9675-1.57667 1.505-2.00667.35833-.28667.7525-.57333 1.1825-.78833.35833-.215.7525-.39417 1.14667-.57333.215-.1075.46583-.17917.68083-.25083.25083-.1075.50167-.17917.78833-.25083.3225-.1075.645-.215 1.00333-.28667l.03583-.03583c1.6125-.43 3.36833-.71667 5.23167-.89583.07167-.03583.14333-.03583.215-.03583 2.18583-.215 4.47917-.39417 6.70083-.5375.68083-.07167 1.32583-.1075 1.97083-.17917.71667-.03583 1.3975-.1075 2.07833-.215.7525-.07167 1.505-.17917 2.2575-.28667.68083-.1075 1.32583-.215 1.97083-.35833.3225-.07167.645-.14333.93167-.215.5375-.14333 1.075-.28667 1.57667-.46583.78833-.28667 1.57667-.60917 2.32917-.9675.17917-.07167.3225-.14333.50167-.215.71667-.35833 1.3975-.7525 2.07833-1.14667.78833-.46583 1.505-.93167 2.22167-1.46917.645-.46583 1.29-.93167 1.89917-1.43333.5375-.43 1.03917-.89583 1.505-1.32583.43-.39417.86-.78833 1.25417-1.25417.5375-.50167 1.075-1.03917 1.54083-1.57667.35833-.39417.71667-.82417 1.11083-1.25417 1.00333-1.21833 1.935-2.40083 2.72333-3.5475.93167-1.36167 1.75583-2.61583 2.365-3.69083h.03583c.03583-.1075.1075-.215.17917-.3225.07167-.17917.17917-.3225.25083-.46583.14333-.25083.28667-.46583.39417-.71667 0 0 0-.03583.03583-.03583.17917-.3225.3225-.60917.46583-.86C85.785 14.76335 86 14.33335 86 14.33335s.60917 1.43333 1.86333 3.61917c0 .03583.03583.03583.03583.07167.215.3225.39417.68083.645 1.03917.46583.7525.9675 1.57667 1.57667 2.43667.03583.03583.03583.07167.07167.1075 1.075 1.54083 2.32917 3.18917 3.79833 4.80167.46583.5375.9675 1.075 1.54083 1.6125.35833.39417.71667.7525 1.11083 1.11083.43.39417.86.78833 1.32583 1.1825.1075.07167.215.17917.3225.25083.57333.50167 1.1825.9675 1.79167 1.3975.78833.57333 1.6125 1.075 2.43667 1.57667.86.50167 1.75583.93167 2.65167 1.36167.03583.03583.1075.03583.14333.07167.71667.3225 1.43333.60917 2.18583.86.645.215 1.32583.39417 2.07833.57333h.03583c.645.17917 1.29.28667 1.97083.39417.89583.14333 1.86333.28667 2.83083.35833 1.21833.14333 2.4725.25083 3.72667.35833 2.97417.215 6.02.39417 8.77917.78833.1075.03583.215.03583.3225.03583.3225.07167.60917.14333.93167.17917.89583.17917 1.75583.35833 2.58.60917.39417.07167.78833.215 1.1825.35833.14333.03583.28667.07167.43.14333l.03583.03583c.215.03583.39417.14333.60917.25083.03583 0 .07167.03583.1075.03583.3225.14333.645.28667.9675.46583.43.25083.82417.50167 1.1825.78833.43.3225.86.86 1.29 1.505.14333.215.28667.43.43.645.17917.215.3225.46583.43.71667.14333.25083.28667.50167.43.7525 1.32583 2.40083 2.365 5.0525 2.43667 5.30333z"/><path fill="url(#c)" d="M86 7.16667c-2.967 0-5.375 2.408-5.375 5.375s2.408 5.375 5.375 5.375 5.375-2.408 5.375-5.375-2.408-5.375-5.375-5.375z"/><path fill="#272727" d="M68.08333 78.83333c-1.97083 0-3.58333 1.6125-3.58333 3.58333s1.6125 3.58333 3.58333 3.58333 3.58333-1.6125 3.58333-3.58333-1.6125-3.58333-3.58333-3.58333zm35.83334 0c-1.97083 0-3.58333 1.6125-3.58333 3.58333s1.6125 3.58333 3.58333 3.58333S107.5 84.38749 107.5 82.41666s-1.6125-3.58333-3.58333-3.58333zM86 91.08833c-7.955 0-14.33333-3.29667-14.33333 0 0 2.40083 1.75583 5.98417 6.5575 7.91917C80.15917 97.61 82.91834 96.75 86 96.75c3.08167 0 5.84083.86 7.77583 2.2575 4.80167-1.935 6.5575-5.51833 6.5575-7.91917 0-3.29667-6.41417 0-14.33333 0z"/><path fill="#d75b60" d="M93.77583 99.0075c-2.00667.82417-4.58667 1.32583-7.77583 1.32583-3.18917 0-5.76917-.50167-7.77583-1.32583C80.15917 97.61 82.91834 96.75 86 96.75c3.08167 0 5.84083.86 7.77583 2.2575z"/><path fill="#151515" d="M32.5725 50.16667h.03583V50.095c-.03583.03583-.03583.07167-.03583.07167z" opacity=".05"/><path fill="#151515" d="M141.29083 51.9225c-.3225-.60917-.645-1.1825-.9675-1.75583l-.03583-.03583h-.03583c-.1075-.03583-.28667-.07167-.57333-.14333-.25083-.07167-.60917-.14333-1.075-.25083-.1075-.03583-.17917-.07167-.28667-.1075-.28667-.07167-.57333-.14333-.89583-.215-.1075 0-.25083-.03583-.35833-.07167-.25083-.07167-.50167-.1075-.7525-.17917-.17917-.07167-.35833-.1075-.57333-.14333-.57333-.14333-1.1825-.28667-1.8275-.43-1.3975-.3225-3.01-.645-4.76583-1.00333-.82417-.17917-1.72-.35833-2.61583-.5375-.82417-.14333-1.72-.28667-2.61583-.46583-.60917-.1075-1.25417-.215-1.89917-.3225-1.3975-.25083-2.9025-.50167-4.44333-.71667-1.54083-.25083-3.1175-.46583-4.76583-.68083-.71667-.1075-1.46917-.215-2.22167-.28667-.1075-.03583-.25083-.03583-.39417-.03583-.93167-.14333-1.89917-.25083-2.86667-.35833-.43-.03583-.89583-.07167-1.32583-.1075-.60917-.07167-1.21833-.1075-1.8275-.17917-2.22167-.215-4.515-.39417-6.84417-.5375-3.655-.215-7.45333-.35833-11.32333-.35833-1.46917 0-2.93833 0-4.37167.07167-1.21833 0-2.4725.07167-3.655.1075-.215 0-.39417.03583-.60917.03583-.68083.03583-1.36167.07167-2.00667.1075-.7525.03583-1.505.07167-2.2575.14333-1.64833.1075-3.29667.215-4.90917.39417-.14333 0-.25083.03583-.39417.03583-1.36167.1075-2.72333.25083-4.04917.43-.39417 0-.78833.07167-1.1825.1075-1.21833.14333-2.365.28667-3.51167.46583-.71667.07167-1.43333.17917-2.11417.28667-2.365.3225-4.6225.68083-6.70083 1.075-.39417.07167-.7525.14333-1.14667.215-1.21833.215-2.365.43-3.47583.645-1.36167.25083-2.65167.5375-3.79833.78833-.71667.17917-1.3975.3225-2.0425.46583-.25083.07167-.46583.1075-.68083.14333-.57333.1075-1.14667.25083-1.64833.39417-.35833.07167-.71667.17917-1.00333.25083-.25083.03583-.5375.1075-.7525.17917-.25083.07167-.46583.1075-.68083.17917-.35833.07167-.68083.17917-.93167.25083-.215.07167-.39417.1075-.57333.14333-.28667.07167-.50167.14333-.645.17917-.14333.03583-.215.07167-.25083.07167h-.03583c-.35833.57333-.71667 1.1825-1.075 1.79167-.35833.57333-.68083 1.1825-1.00333 1.79167h2.65167l.68083-.215.25083-.07167.28667-.07167c.14333-.03583.46583-.1075.86-.215l.07167-.03583c.1075-.03583.25083-.07167.43-.1075l.215-.03583.215-.07167c.215-.07167.35833-.1075.50167-.14333l.28667-.07167.14333-.03583.215-.03583.35833-.1075c.14333-.03583.3225-.07167.50167-.1075l.14333-.03583.1075-.03583c.43-.1075.89583-.215 1.32583-.3225.25083-.03583.5375-.07167.89583-.17917l.3225-.07167c.57333-.1075 1.14667-.25083 1.72-.39417l.17917-.03583c1.03917-.215 2.18583-.46583 3.40417-.71667 1.11083-.215 2.2575-.43 3.44-.645l.645-.1075.5375-.1075c1.97083-.35833 4.15667-.71667 6.5575-1.03917.68083-.1075 1.32583-.215 1.97083-.25083l.1075-.03583h.07167c1.11083-.17917 2.22167-.3225 3.40417-.46583l.39417-.03583c.1075 0 .25083-.03583.35833-.03583h.215l.25083-.03583c1.25417-.17917 2.50833-.28667 3.79833-.39417.1075 0 .25083-.03583.35833-.03583h.03583l.17917-.03583c1.57667-.14333 3.15333-.25083 4.76583-.35833.78833-.07167 1.46917-.1075 2.18583-.14333l1.935-.1075c.17917 0 .35833 0 .5375-.03583l1.25417-.03583c.78833-.03583 1.57667-.07167 2.365-.07167h.17917c1.32583-.07167 2.65167-.07167 4.01333-.07167h.17917c3.44 0 7.095.1075 11.10833.35833 2.29333.14333 4.55083.3225 6.70083.5375.28667 0 .60917.03583.9675.07167.25083.03583.5375.03583.78833.07167l.82417.07167.645.07167c.82417.07167 1.72.17917 2.61583.3225l.25083.03583h.14333l.215.03583c.68083.03583 1.36167.14333 2.00667.25083 1.68417.215 3.225.43 4.73.68083 1.57667.215 3.04583.46583 4.37167.68083l1.935.3225c.60917.14333 1.32583.25083 2.00667.39417l.60917.1075c.78833.14333 1.64833.3225 2.4725.50167l.71667.14333c1.46917.28667 2.795.57333 4.01333.82417.60917.14333 1.21833.28667 1.75583.43l.14333.03583.1075.03583h.03583l.17917.03583c.17917.07167.39417.1075.60917.14333.28667.1075.60917.17917.89583.215.14333.03583.28667.07167.39417.1075.07167 0 .14333.03583.215.07167l.17917.03583.17917.03583.43.1075c.17917.03583.3225.07167.46583.1075l.43.1075.5375.17917h2.54417c-.28667-.60917-.60917-1.21833-.93167-1.79167z" opacity=".05"/><path fill="#151515" d="M140.32333 50.16667l-.03583-.03583h-.03583c-.1075-.03583-.28667-.07167-.57333-.14333-.25083-.07167-.60917-.14333-1.075-.25083-.1075-.03583-.17917-.07167-.28667-.1075-.28667-.07167-.57333-.14333-.89583-.215-.1075 0-.25083-.03583-.35833-.07167-.25083-.07167-.50167-.1075-.7525-.17917-.17917-.07167-.35833-.1075-.57333-.14333-.57333-.14333-1.1825-.28667-1.8275-.43-1.3975-.3225-3.01-.645-4.76583-1.00333-.82417-.17917-1.72-.35833-2.61583-.5375-.82417-.14333-1.72-.28667-2.61583-.46583-.60917-.1075-1.25417-.215-1.89917-.3225-1.3975-.25083-2.9025-.50167-4.44333-.71667-1.54083-.25083-3.1175-.46583-4.76583-.68083-.71667-.1075-1.46917-.215-2.22167-.28667-.1075-.03583-.25083-.03583-.39417-.03583-.93167-.14333-1.89917-.25083-2.86667-.35833-.43-.03583-.89583-.07167-1.32583-.1075-.60917-.07167-1.21833-.1075-1.8275-.17917-2.22167-.215-4.515-.39417-6.84417-.5375-3.655-.215-7.45333-.35833-11.32333-.35833-1.46917 0-2.93833 0-4.37167.07167-1.21833 0-2.4725.07167-3.655.1075-.215 0-.39417.03583-.60917.03583-.68083.03583-1.36167.07167-2.00667.1075-.7525.03583-1.505.07167-2.2575.14333-1.64833.1075-3.29667.215-4.90917.39417-.14333 0-.25083.03583-.39417.03583-1.36167.1075-2.72333.25083-4.04917.43-.39417 0-.78833.07167-1.1825.1075-1.21833.14333-2.365.28667-3.51167.46583-.71667.07167-1.43333.17917-2.11417.28667-2.365.3225-4.6225.68083-6.70083 1.075-.39417.07167-.7525.14333-1.14667.215-1.21833.215-2.365.43-3.47583.645-1.36167.25083-2.65167.5375-3.79833.78833-.71667.17917-1.3975.3225-2.0425.46583-.25083.07167-.46583.1075-.68083.14333-.57333.1075-1.14667.25083-1.64833.39417-.35833.07167-.71667.17917-1.00333.25083-.25083.03583-.5375.1075-.7525.17917-.25083.07167-.46583.1075-.68083.17917-.35833.07167-.68083.17917-.93167.25083-.215.07167-.39417.1075-.57333.14333-.28667.07167-.50167.14333-.645.17917-.14333.03583-.215.07167-.25083.07167h-.03583c-.35833.57333-.71667 1.1825-1.075 1.79167h1.36167l.39417-.1075.3225-.1075.35833-.07167c.17917-.03583.43-.1075.71667-.215l.14333-.03583c.14333-.03583.35833-.1075.57333-.14333l.1075-.03583.1075-.03583c.07167 0 .14333-.03583.215-.03583l.39417-.1075c.17917-.07167.35833-.1075.50167-.14333h.17917l.3225-.1075c.17917-.03583.39417-.1075.60917-.14333.57333-.17917 1.11083-.28667 1.6125-.39417.25083-.03583.5375-.07167.86-.17917l.28667-.07167c.5375-.1075 1.11083-.215 1.68417-.35833l.215-.07167c1.075-.215 2.2575-.46583 3.47583-.71667 1.11083-.215 2.2575-.43 3.47583-.645l.60917-.1075.5375-.1075c1.97083-.35833 4.22833-.71667 6.62917-1.03917.68083-.1075 1.36167-.215 2.0425-.28667 1.21833-.215 2.32917-.3225 3.5475-.46583l.39417-.07167c.17917 0 .39417-.03583.57333-.03583h.25083c1.29-.17917 2.61583-.3225 3.94167-.43.07167 0 .17917-.03583.3225-.03583 1.72-.17917 3.3325-.28667 4.945-.39417.78833-.07167 1.505-.1075 2.22167-.14333l2.0425-.1075c.07167 0 .215 0 .35833-.03583h.215l1.14667-.03583c.82417-.03583 1.6125-.07167 2.43667-.07167 1.46917-.07167 2.86667-.07167 4.3-.07167h.07167c3.47583 0 7.16667.1075 11.21583.35833 2.32917.14333 4.6225.3225 6.7725.5375.28667.03583.60917.07167.93167.07167.28667.03583.57333.07167.86.1075l.7525.03583.645.07167c.89583.1075 1.8275.215 2.72333.3225l.14333.03583h.17917l.17917.03583c.71667.07167 1.43333.17917 2.15.25083 1.64833.25083 3.18917.43 4.73.68083 1.54083.215 3.04583.46583 4.4075.71667l1.89917.3225c.645.14333 1.36167.25083 2.00667.35833l.60917.1075c.86.17917 1.75583.35833 2.54417.5375l.71667.14333c1.46917.28667 2.83083.57333 4.04917.86.645.14333 1.21833.28667 1.79167.43.215.03583.28667.03583.35833.03583.3225.1075.46583.14333.645.17917l.25083.07167c.17917.07167.39417.1075.60917.14333.25083.03583.46583.1075.68083.14333l.17917.07167.60917.14333c.215.07167.39417.1075.5375.14333l.35833.1075.28667.07167.43.03583h1.03917c-.3225-.60917-.645-1.1825-.9675-1.75583zM86 64.5c-28.66667 0-28.66667 10.75-28.66667 10.75v68.08333l1.79167-2.15 1.79167-2.15V75.42916c.39417-2.11417 5.55417-7.34583 25.08333-7.34583 19.52917 0 24.68917 5.23167 25.08333 7.34583v63.60417l1.79167 2.15 1.79167 2.15V75.25s0-10.75-28.66667-10.75z" opacity=".05"/><path fill="#151515" d="M86 64.5c-28.66667 0-28.66667 10.75-28.66667 10.75v68.08333l1.79167-2.15V75.25c0-.03583.82417-8.95833 26.875-8.95833s26.875 8.9225 26.875 8.99417v65.8975l1.79167 2.15V75.25001s0-10.75-28.66667-10.75z" opacity=".05"/><path fill="#e34880" d="M114.66667 143.33333v14.33333H57.33334v-14.33333l17.91667-21.5h21.5z"/><path fill="#fabfc7" d="M114.66667 146.91667H129v10.75h-14.33333zm-71.66667 0h14.33333v10.75H43z"/><path fill="url(#d)" d="M114.66667 150.46417v-7.13083c7.48917 0 7.16667-3.58333 14.33333-3.58333v7.16667s.35833 3.08167-14.33333 3.5475zm-57.33334-7.13084v7.13083C42.64166 149.99833 43 146.91666 43 146.91666v-7.16667c7.16667 0 7.16667 3.58333 14.33333 3.58333zm39.41667-21.5h-21.5L65.86167 133.085c2.54417 1.935 5.805 3.08167 9.38833 3.08167 4.3 0 8.13417-1.64833 10.75-4.26417 2.61583 2.61583 6.45 4.26417 10.75 4.26417 3.58333 0 6.84417-1.14667 9.38833-3.08167z"/><path fill="#de2568" d="M60.91667 118.25c-.60917 0-1.21833 0-1.79167.03583-.60917 0-1.21833.03583-1.79167.07167C43 119.325 43 126.45583 43 139.75c7.16667 0 7.16667 3.58333 14.33333 3.58333l1.79167-2.15 1.79167-2.15 12.9-15.48c-1.505-3.1175-5.44667-5.30333-12.9-5.30333zm53.75.1075c-.57333-.03583-1.1825-.07167-1.79167-.07167-.57333-.03583-1.1825-.03583-1.79167-.03583-7.45333 0-11.395 2.18583-12.9 5.30333l12.9 15.48 1.79167 2.15 1.79167 2.15c7.48917 0 7.16667-3.58333 14.33333-3.58333 0-13.29417 0-20.425-14.33333-21.3925z"/><path fill="#fabfc7" d="M75.25 107.5h21.5v14.33333c-1.21117.91017-5.09908 3.58333-10.75 3.58333-1.51575 0-6.22783-.1935-10.75-3.58333V107.5z"/></g></svg>