<svg xmlns="http://www.w3.org/2000/svg" viewBox="0 0 172 172"><defs/><defs><linearGradient id="a" x1="90.46842" x2="85.5055" y1="176.82675" y2="111.62083" gradientUnits="userSpaceOnUse"><stop offset="0" stop-color="#2b92f3"/><stop offset="1" stop-color="#1166d2"/></linearGradient><linearGradient id="b" x1="49.63633" x2="85.785" y1="4.558" y2="66.22358" gradientUnits="userSpaceOnUse"><stop offset="0" stop-color="#d7e3ee"/><stop offset=".391" stop-color="#ccd8e3"/><stop offset="1" stop-color="#b1bbc6"/></linearGradient><linearGradient id="c" x1="78.26358" x2="91.72975" y1="89.58692" y2="151.95842" gradientUnits="userSpaceOnUse"><stop offset="0" stop-color="#2b92f3"/><stop offset="1" stop-color="#1166d2"/></linearGradient></defs><g fill="none" stroke-miterlimit="10" font-family="none" font-size="none" font-weight="none" style="mix-blend-mode:normal" text-anchor="none"><path d="M0 172V0h172v172z"/><path fill="url(#a)" d="M153.25917 96.4275c-1.89917-4.55083-6.7725-6.84417-8.385-6.84417-.50167 0-1.00333.07167-1.54083.25083-.57333.14333-1.1825.39417-1.79167.7525-.60917.3225-1.1825.71667-1.79167 1.1825-.86.68083-1.72 1.46917-2.50833 2.365l-.03583.03583c-1.29 1.43333-2.4725 3.1175-3.26083 4.8375-.82417 1.68417-1.32583 3.36833-1.36167 4.90917v32.25h21.5v-35.69c0-1.505-.3225-2.86667-.82417-4.04917zM38.055 99.0075c-.78833-1.72-1.97083-3.40417-3.26083-4.8375l-.03583-.03583c-.78833-.89583-1.64833-1.68417-2.50833-2.365-.60917-.46583-1.1825-.86-1.79167-1.1825-.60917-.35833-1.21833-.60917-1.79167-.7525-.5375-.17917-1.03917-.25083-1.54083-.25083-1.6125 0-6.48583 2.29333-8.385 6.84417-.50167 1.1825-.82417 2.54417-.82417 4.04917v35.69h21.5v-32.25c-.03583-1.54083-.5375-3.225-1.36167-4.90917z"/><path fill="#a1cd6a" d="M32.25 75.465c-.60917-.14333-1.21833-.17917-1.79167-.215h-.25083c-.5375 0-1.03917.03583-1.54083.07167-6.05583.43-10.75 3.58333-10.75 9.42417 0 4.22833.3225 8.09833.82417 11.68167.215 1.43333.43 2.83083.71667 4.1925h-.03583c.215 1.14667.46583 2.22167.7525 3.29667h26.40917V87.93501c0-4.73-7.8475-11.25167-14.33333-12.47zm121.83333 9.28083c0-5.84083-4.69417-8.99417-10.75-9.42417-.50167-.03583-1.00333-.07167-1.54083-.07167h-.25083c-.57333.03583-1.1825.07167-1.79167.215-6.48583 1.21833-14.33333 7.74-14.33333 12.47v15.98167h26.40917c.28667-1.075.5375-2.15.7525-3.29667h-.03583c.28667-1.36167.50167-2.75917.71667-4.1925.50167-3.58333.82417-7.45333.82417-11.68167z"/><path fill="url(#b)" d="M139.75 35.11667v68.8H32.25v-68.8c0-9.63917 5.9125-17.2 13.4375-17.2 6.45 0 11.68167 5.55417 13.07917 13.15083 2.15-.35833 4.37167-.645 6.59333-.93167 2.0425-.215 4.12083-.43 6.19917-.57333.35833-.07167.71667-.07167 1.075-.1075 2.11417-.17917 4.22833-.28667 6.37833-.35833 2.2575-.1075 4.55083-.14333 6.84417-.14333h.07167c9.28083 0 18.5975.71667 27.305 2.15 1.36167-7.6325 6.62917-13.18667 13.07917-13.18667 7.525 0 13.4375 7.56083 13.4375 17.2z"/><path fill="#fabeac" d="M128.14 60.88083c-3.3325-10.6425-16.37583-18.8125-33.39667-20.92667-2.83083-.35833-5.73333-.5375-8.74333-.5375-3.01 0-5.9125.17917-8.74333.5375C60.23584 42.06833 47.1925 50.23833 43.86 60.88083c-.57333 1.75583-.86 3.5475-.86 5.41083s.28667 3.655.86 5.41083c3.3325 10.6425 16.37583 18.8125 33.39667 20.92667 2.83083.35833 5.73333.5375 8.74333.5375 3.01 0 5.9125-.17917 8.74333-.5375 17.02083-2.11417 30.06417-10.28417 33.39667-20.92667.57333-1.75583.86-3.5475.86-5.41083s-.28667-3.655-.86-5.41083zM17.91667 136.16667V150.5c0 3.94167 3.225 7.16667 7.16667 7.16667h7.16667v-21.5zm121.83333 0v21.5h7.16667c3.94167 0 7.16667-3.225 7.16667-7.16667v-14.33333z"/><path fill="#6fa52c" d="M20.17417 103.91667C22.36 112.445 25.6925 118.68 28.66667 122.8725c.60917.86 1.21833 1.64833 1.79167 2.32917.645.82417 1.25417 1.505 1.79167 2.07833.89583.89583 1.57667 1.505 2.0425 1.86333 1.75583 1.36167 3.51167 2.18583 5.12417 2.6875 4.01333 1.32583 7.16667.50167 7.16667.50167v-28.41583zm105.2425 0v28.41583s3.15333.82417 7.16667-.50167c1.6125-.50167 3.36833-1.32583 5.12417-2.6875.46583-.35833 1.14667-.9675 2.0425-1.86333.5375-.57333 1.14667-1.25417 1.79167-2.07833.57333-.68083 1.1825-1.46917 1.79167-2.32917 2.97417-4.1925 6.30667-10.4275 8.4925-18.95583z"/><path fill="#272727" d="M111.08333 57.33333c-1.978 0-3.58333 1.60533-3.58333 3.58333 0 1.978 1.60533 3.58333 3.58333 3.58333 1.978 0 3.58333-1.60533 3.58333-3.58333 0-1.978-1.60533-3.58333-3.58333-3.58333zm-50.16666 0c-1.978 0-3.58333 1.60533-3.58333 3.58333 0 1.978 1.60533 3.58333 3.58333 3.58333 1.978 0 3.58333-1.60533 3.58333-3.58333 0-1.978-1.60533-3.58333-3.58333-3.58333zM86.00358 75.25c-6.22067 0-11.99342-1.46558-16.23967-4.13158-1.677-1.04992-2.18225-3.26083-1.13233-4.93783 1.05708-1.677 3.268-2.17867 4.94142-1.13233 3.0745 1.92783 7.60742 3.03508 12.43058 3.03508 4.81958 0 9.34533-1.10725 12.43058-3.03508 1.67342-1.04992 3.88792-.54467 4.93783 1.13592 1.04992 1.677.54108 3.88792-1.13592 4.93783-4.24983 2.66242-10.019 4.128-16.2325 4.128z"/><path fill="url(#c)" d="M139.75 93.16667v64.5H32.25v-64.5l2.50833.9675.03583.03583 2.97417 1.14667c2.6875 1.03917 5.66167 2.00667 8.815 2.83083 1.36167.39417 2.75917.71667 4.15667 1.03917.07167 0 .14333.03583.17917.03583 2.97417.68083 6.1275 1.29 9.3525 1.75583 1.6125.25083 3.225.46583 4.90917.68083.86.1075 1.72.215 2.61583.28667 1.21833.14333 2.4725.25083 3.72667.3225.82417.1075 1.64833.14333 2.4725.17917 1.72.14333 3.44.25083 5.19583.28667 2.2575.1075 4.515.14333 6.80833.14333s4.55083-.03583 6.80833-.14333c1.75583-.03583 3.47583-.14333 5.19583-.28667.82417-.03583 1.64833-.07167 2.4725-.17917 1.25417-.07167 2.50833-.17917 3.72667-.3225.89583-.07167 1.75583-.17917 2.61583-.28667 1.68417-.215 3.29667-.43 4.90917-.68083 3.225-.46583 6.37833-1.075 9.3525-1.75583.03583 0 .1075-.03583.17917-.03583 1.3975-.3225 2.795-.645 4.15667-1.03917 3.15333-.82417 6.1275-1.79167 8.815-2.83083l2.97417-1.14667.03583-.03583z"/><path fill="#151515" d="M86 41.20833c22.72192 0 41.20833 11.25167 41.20833 25.08333 0 13.83167-18.48642 25.08333-41.20833 25.08333-22.72192 0-41.20833-11.25167-41.20833-25.08333 0-13.83167 18.48642-25.08333 41.20833-25.08333m0-1.79166c-23.74675 0-43 12.03283-43 26.875s19.25325 26.875 43 26.875 43-12.03283 43-26.875-19.25325-26.875-43-26.875z" opacity=".05"/><path fill="#151515" d="M86 43c21.36742 0 39.41667 10.66758 39.41667 23.29167 0 12.62408-18.04925 23.29167-39.41667 23.29167-21.36742 0-39.41667-10.66758-39.41667-23.29167C46.58333 53.66759 64.63258 43 86 43m0-3.58333c-23.74675 0-43 12.03283-43 26.875s19.25325 26.875 43 26.875 43-12.03283 43-26.875-19.25325-26.875-43-26.875zM139.75 75.465v82.20167h1.79167V75.25c-.57333.03583-1.1825.07167-1.79167.215zM30.45833 157.66667H32.25V75.465c-.60917-.14333-1.21833-.17917-1.79167-.215z" opacity=".05"/><path fill="#151515" d="M141.7925 75.25h-.25083c-.57333.03583-1.1825.07167-1.79167.215v82.20167h3.58333v-82.345c-.50167-.03583-1.00333-.07167-1.54083-.07167zm-111.585 0c-.5375 0-1.03917.03583-1.54083.07167v82.345H32.25V75.465c-.60917-.14333-1.21833-.17917-1.79167-.215z" opacity=".05"/><path fill="#151515" d="M134.23167 95.31667C121.86917 100.11834 104.275 102.8775 86 102.8775c-18.275 0-35.86917-2.75917-48.23167-7.56083l-5.51833-2.15v3.83417l4.22833 1.64833c5.62583 2.18583 12.32667 3.9775 19.63667 5.2675 9.20917 1.64833 19.4575 2.54417 29.885 2.54417 10.4275 0 20.67583-.89583 29.885-2.54417 7.31-1.29 14.01083-3.08167 19.63667-5.2675l4.22833-1.64833v-3.83417z" opacity=".05"/><path fill="#151515" d="M134.23167 95.31667C121.86917 100.11834 104.275 102.8775 86 102.8775c-18.275 0-35.86917-2.75917-48.23167-7.56083l-5.51833-2.15v1.935l4.87333 1.89917c8.815 3.40417 20.24583 5.805 32.64417 6.91583 5.2675.50167 10.71417.7525 16.2325.7525 5.51833 0 10.965-.25083 16.2325-.7525 12.39833-1.11083 23.82917-3.51167 32.64417-6.91583l4.87333-1.89917v-1.935z" opacity=".05"/></g></svg>