<svg xmlns="http://www.w3.org/2000/svg" viewBox="0 0 172 172"><defs/><defs><linearGradient id="a" x1="86.69517" x2="85.74917" y1="30.4225" y2="167.45633" gradientUnits="userSpaceOnUse"><stop offset=".643" stop-color="#9bdbf5"/><stop offset=".852" stop-color="#69c4fb"/><stop offset="1" stop-color="#43b3ff"/></linearGradient><linearGradient id="b" x1="85.25108" x2="86.19708" y1="128.15792" y2="107.844" gradientUnits="userSpaceOnUse"><stop offset=".002" stop-color="#356bd4"/><stop offset=".397" stop-color="#1f53c1"/><stop offset=".763" stop-color="#1144b3"/><stop offset="1" stop-color="#0d3eaf"/></linearGradient><linearGradient id="c" x1="79.89758" x2="87.69492" y1="-1.247" y2="68.20875" gradientUnits="userSpaceOnUse"><stop offset=".491" stop-color="#fac600"/><stop offset="1" stop-color="#d66b00"/></linearGradient></defs><g fill="none" stroke-miterlimit="10" font-family="none" font-size="none" font-weight="none" style="mix-blend-mode:normal" text-anchor="none"><path d="M0 172V0h172v172z"/><path fill="url(#a)" d="M154.08333 136.16667h-5.98417c-.68083 0-1.25417.5375-1.29 1.1825-.03583.86-.07167 1.68417-.14333 2.50833-.71667 10.105-9.38833 17.80917-19.52917 17.80917H44.32583c-10.17667 0-18.8125-7.70417-19.52917-17.80917-.07167-.82417-.1075-1.64833-.14333-2.50833-.03583-.645-.60917-1.1825-1.29-1.1825h-4.1925c-.93167 0-1.54083-1.00333-1.14667-1.8275 6.19917-13.25833 7.095-15.87417 6.80833-22.0375-.03583-.68083-.60917-1.21833-1.29-1.21833h-4.22833c-.89583 0-1.54083-.9675-1.1825-1.79167C25.51333 92.5575 38.52083 84.065 42.56999 69.40917c1.57667-5.805 5.16-10.535 10.17667-14.11833.50167-.35833 1.00333-.68083 1.505-1.03917.50167-.3225 1.03917-.645 1.57667-.93167 1.46917-.86 3.04583-1.6125 4.69417-2.2575.71667-.3225 1.46917-.60917 2.22167-.89583 6.70083-2.40083 14.54833-3.58333 22.96917-3.58333 8.31333 0 16.16083 1.1825 22.86167 3.58333 1.03917.35833 2.07833.7525 3.04583 1.21833 1.57667.645 3.04583 1.3975 4.44333 2.22167.5375.28667 1.03917.60917 1.54083.93167.50167.35833 1.00333.68083 1.46917 1.03917 4.8375 3.5475 8.2775 8.17 9.81833 13.83167 3.94167 14.69167 17.05667 23.18417 24.43833 39.8825.35833.82417-.28667 1.79167-1.1825 1.79167h-4.26417c-.645 0-1.21833.5375-1.25417 1.21833-.3225 6.45.50167 9.03 4.80167 18.02417z"/><path fill="url(#b)" d="M121.83333 112.19417c-.03583 1.935-.82417 3.58333-2.15 4.69417-1.25417.9675-2.75917 1.36167-4.58667 1.36167-2.11417 0-4.6225-.5375-7.59667-1.29v-9.46l-7.48917 7.48917c-4.4075-1.11083-9.10167-2.07833-13.47333-2.07833-4.8375 0-9.96167.9675-14.58417 2.0425h-.03583l-7.4175-7.45333v9.20917c-5.84083 1.36167-9.85417 1.97083-12.39833-.17917-1.25417-1.03917-1.935-2.61583-1.935-4.44333 0-3.1175 1.86333-5.94833 5.19583-8.2775l5.55417 3.69083v-6.665c.9675-.39417 1.97083-.7525 3.01-1.075l7.74 7.74v-9.60333c4.33583-.7525 9.1375-1.14667 14.33333-1.14667 4.55083 0 9.5675.43 14.33333 1.32583v9.42417l7.56083-7.56083c1.11083.3225 2.18583.71667 3.18917 1.11083v10.03333l6.48583-6.48583c.645.46583 1.21833.9675 1.72 1.505 2.18583 2.29333 2.58 4.58667 2.54417 6.09167z"/><path fill="#38b4ee" d="M129 89.58333L111.08333 86 107.5 93.16667 96.75 86 86 143.33333 75.25 86 64.5 93.16667 60.91667 86 43 89.58333l17.91667-39.41667h50.16667z"/><path fill="#aed5fa" d="M114.00017 73.94208l-20.984-4.687 3.47225-1.51933c.83492-.53033 1.08217-1.63758.55183-2.4725l-2.46175-3.00283 20.984 4.687-3.47225 1.51933c-.83492.53033-1.08217 1.63758-.55183 2.4725zM79.28125 69.23358l-20.92308 4.95217 2.46175-2.88458c.51958-.84208.258-1.94575-.58408-2.46533l-3.526-1.62325 20.92308-4.95217-2.46175 2.88458c-.51958.84208-.258 1.94575.58408 2.46533z"/><path fill="#272727" d="M68.08333 75.33242c-1.978-.00358-3.58692 1.56233-3.58692 3.49733 0 1.935 1.60175 3.5045 3.57975 3.5045h.00717c1.978.00358 3.58692-1.56233 3.58692-3.49733 0-1.935-1.60175-3.5045-3.57975-3.5045h-.00717zm35.83334 0c-1.978-.00358-3.58692 1.56233-3.58692 3.49733 0 1.935 1.60175 3.5045 3.57975 3.5045h.00717c1.978.00358 3.58692-1.56233 3.58692-3.49733 0-1.935-1.60175-3.5045-3.57975-3.5045h-.00717z"/><path fill="url(#c)" d="M116.06417 53.60667c-.07167.215-.25083.39417-.50167.46583-.5375.17917-1.32583.39417-2.40083.645-4.33583 1.075-13.04333 2.61583-27.16167 2.61583-14.11833 0-22.82583-1.54083-27.16167-2.61583-1.075-.28667-1.86333-.50167-2.40083-.68083-.35833-.1075-.57333-.39417-.60917-.71667-.03583-.17917-.03583-.3225.03583-.50167l14.58417-35.475c.14333-.39417.50167-.57333.82417-.57333.1075 0 .215 0 .3225.03583.1075.03583.17917.1075.28667.17917.17917.14333.28667.3225.3225.57333l2.43667 14.62c.03583.25083.17917.43.3225.57333.17917.1075.39417.17917.60917.17917.25083 0 .5375-.1075.71667-.3225.07167-.07167.1075-.17917.14333-.28667l8.77917-26.1225c.14333-.39417.50167-.60917.86-.60917.39417 0 .7525.215.89583.645l8.6 26.05083c.14333.43.50167.60917.89583.60917.39417 0 .82417-.25083.89583-.7525l2.43667-14.58417c.07167-.50167.50167-.78833.93167-.78833.3225 0 .68083.17917.82417.57333l14.58417 35.475c.1075.28667.07167.57333-.07167.78833z"/><path fill="#c22300" d="M84.93933 29.72733l-5.66883 5.66883c-.2795.2795-.43717.65933-.43717 1.05708v9.51017c0 .39775.15767.77758.43717 1.06067l5.66883 5.66883c.58408.58408 1.53367.58408 2.11775 0l5.66883-5.66883c.28308-.28308.44075-.66292.44075-1.06067v-9.51017c0-.39775-.15767-.77758-.43717-1.06067l-5.66883-5.66883c-.58767-.58408-1.53367-.58408-2.12133.00358zm24.58525 7.08067l5.547 4.816c.35833.31175.54825.774.51242 1.247l-.55542 7.29567-5.48967-4.88408c-.344-.30817-.53033-.75608-.49808-1.21833zm-47.09216.0215l.59125 7.23117c.03942.47658-.1505.93883-.50883 1.25417l-5.53983 4.816-.47658-7.28133c-.02867-.46225.15408-.91375.50167-1.22192z"/><path fill="#151515" d="M116.06417 53.60667c-.07167.215-.25083.39417-.50167.46583-.5375.17917-1.32583.39417-2.40083.645-4.33583 1.075-13.04333 2.61583-27.16167 2.61583-14.11833 0-22.82583-1.54083-27.16167-2.61583-1.075-.28667-1.86333-.50167-2.40083-.68083-.35833-.1075-.57333-.39417-.60917-.71667-.5375.28667-1.075.60917-1.57667.93167.25083.68083.86 1.25417 1.68417 1.505.50167.17917 1.32583.39417 2.43667.68083C62.42167 57.44083 71.34417 59.125 86 59.125c14.65583 0 23.57833-1.68417 27.59167-2.65167 1.075-.25083 1.935-.50167 2.54417-.71667.60917-.17917 1.14667-.60917 1.46917-1.21833-.50167-.3225-1.00333-.645-1.54083-.93167z" opacity=".05"/><path fill="#151515" d="M116.06417 53.60667c-.07167.215-.25083.39417-.50167.46583-.5375.17917-1.32583.39417-2.40083.645-4.33583 1.075-13.04333 2.61583-27.16167 2.61583-14.11833 0-22.82583-1.54083-27.16167-2.61583-1.075-.28667-1.86333-.50167-2.40083-.68083-.35833-.1075-.57333-.39417-.60917-.71667-1.075.60917-2.11417 1.25417-3.08167 1.97083.5375 1.03917 1.46917 1.8275 2.61583 2.18583.50167.14333 1.14667.35833 1.97083.5375 4.44333 1.1825 13.61667 2.9025 28.66667 2.9025s24.22333-1.72 28.66667-2.9025c.82417-.17917 1.46917-.39417 1.97083-.5375 1.00333-.3225 1.89917-1.00333 2.43667-1.89917-.9675-.71667-1.97083-1.36167-3.01-1.97083zm-39.775-20.99834c-.3225.39417-.93167.43-1.32583.14333.17917.14333.39417.215.60917.215.25083 0 .5375-.1075.71667-.35833z" opacity=".05"/></g></svg>