<svg xmlns="http://www.w3.org/2000/svg" viewBox="0 0 172 172"><defs/><defs><linearGradient id="b" x1="141.54167" x2="141.54167" y1="102.60875" y2="157.86017" gradientUnits="userSpaceOnUse"><stop offset="0" stop-color="#c48f0c"/><stop offset="1" stop-color="#cd9713"/></linearGradient><linearGradient id="c" x1="30.45833" x2="30.45833" y1="104.5115" y2="158.66642" gradientUnits="userSpaceOnUse"><stop offset="0" stop-color="#c48f0c"/><stop offset="1" stop-color="#cd9713"/></linearGradient><linearGradient id="d" x1="82.70333" x2="133.472" y1="26.92158" y2="80.91883" gradientUnits="userSpaceOnUse"><stop offset="0" stop-color="#6d7479"/><stop offset="1" stop-color="#323538"/></linearGradient><linearGradient id="e" x1="114.92467" x2="128.78858" y1="41.60608" y2="74.51183" gradientUnits="userSpaceOnUse"><stop offset="0" stop-color="#fcfcfc"/><stop offset="1" stop-color="#c3c9cd"/></linearGradient><linearGradient id="f" x1="25.37" x2="76.13867" y1="26.92158" y2="80.91883" gradientUnits="userSpaceOnUse"><stop offset="0" stop-color="#6d7479"/><stop offset="1" stop-color="#323538"/></linearGradient><linearGradient id="g" x1="57.59133" x2="71.45525" y1="41.60608" y2="74.51183" gradientUnits="userSpaceOnUse"><stop offset="0" stop-color="#fcfcfc"/><stop offset="1" stop-color="#c3c9cd"/></linearGradient><linearGradient id="h" x1="86" x2="86" y1="56.11142" y2="118.71583" gradientUnits="userSpaceOnUse"><stop offset="0" stop-color="#f19a00"/><stop offset="1" stop-color="#eb8100"/></linearGradient><linearGradient id="i" x1="86" x2="86" y1="70.88908" y2="86.35833" gradientUnits="userSpaceOnUse"><stop offset="0" stop-color="#505559"/><stop offset="1" stop-color="#323538"/></linearGradient><radialGradient id="a" cx="85.28692" cy="97.352" r="83.47375" gradientUnits="userSpaceOnUse"><stop offset="0" stop-color="#ffcf54"/><stop offset=".261" stop-color="#fdcb4d"/><stop offset=".639" stop-color="#f7c13a"/><stop offset="1" stop-color="#f0b421"/></radialGradient></defs><g fill="none" stroke-miterlimit="10" font-family="none" font-size="none" font-weight="none" style="mix-blend-mode:normal" text-anchor="none"><path d="M0 172V0h172v172z"/><path fill="url(#a)" d="M157.66667 82.41667c0 7.16667 0 25.08333-10.75 25.08333-5.375 0-8.95833-1.79167-10.75-3.58333v53.75H35.83334v-53.75c-1.79167 1.79167-5.375 3.58333-10.75 3.58333-10.59233 0-10.75-17.91667-10.75-25.08333 0-28.66667 25.08333-64.5 71.66667-64.5 46.58333 0 71.66667 35.83333 71.66667 64.5z"/><path fill="url(#b)" d="M146.91667 107.5v43c0 3.95958-3.20708 7.16667-7.16667 7.16667h-3.58333v-53.75c1.79167 1.79167 5.375 3.58333 10.75 3.58333z"/><path fill="url(#c)" d="M35.83333 103.91667v53.75H32.25c-3.95958 0-7.16667-3.20708-7.16667-7.16667v-43c5.375 0 8.95833-1.79167 10.75-3.58333z"/><circle cx="32" cy="17" r="5" fill="url(#d)" transform="scale(3.58333)"/><path fill="url(#e)" d="M114.66667 43c-2.46533 0-4.80883.50167-6.94808 1.40108-.086.72383-.21858 1.43333-.21858 2.18225 0 9.89358 8.02308 17.91667 17.91667 17.91667 2.46533 0 4.80883-.50167 6.94808-1.40108.086-.72383.21858-1.43333.21858-2.18225 0-9.89358-8.02308-17.91667-17.91667-17.91667z"/><circle cx="16" cy="17" r="5" fill="url(#f)" transform="scale(3.58333)"/><path fill="url(#g)" d="M57.33333 43c-2.46533 0-4.80883.50167-6.94808 1.40108-.086.72383-.21858 1.43333-.21858 2.18225 0 9.89358 8.02308 17.91667 17.91667 17.91667 2.46533 0 4.80883-.50167 6.94808-1.40108.086-.72383.21858-1.43333.21858-2.18225C75.25 51.02309 67.22692 43 57.33333 43z"/><path fill="#881421" d="M107.5 86s-2.58 18.13167-14.36917 23.5425c-.07167.03583-.14333.07167-.215.1075-.1075.03583-.215.1075-.3225.14333.35833-.71667.57333-1.505.57333-2.29333 0-3.94167-4.80167-7.16667-10.75-7.16667-4.44333 0-8.24167 1.79167-9.85417 4.33583-.39417-.39417-.71667-.78833-1.03917-1.21833C65.96915 96.06916 64.49999 86 64.49999 86s9.63917 7.16667 21.5 7.16667 21.5-7.16667 21.5-7.16667z"/><path fill="#c94f60" d="M93.16667 107.5c0 .78833-.215 1.57667-.57333 2.29333-1.97083.78833-4.15667 1.29-6.59333 1.29-5.55417 0-9.74667-2.40083-12.86417-5.73333-.215-.215-.39417-.43-.57333-.68083 1.6125-2.54417 5.41083-4.33583 9.85417-4.33583 5.94833 0 10.75 3.225 10.75 7.16667z"/><path fill="url(#h)" d="M86 57.35125c-41.065 1.00333-37.43508 36.08417-33.6905 46.5475 2.28258 6.3425 7.03767 10.75 11.23017 10.75 11.23017 0 13.17592-18.20333 14.97475-28.66667.7095-4.4075 4.15667-6.16333 7.48558-6.59333 3.3325.43 6.77608 2.18583 7.48558 6.59333 1.79525 10.46333 3.74458 28.66667 14.97475 28.66667 4.1925 0 8.94758-4.4075 11.23017-10.75C123.43508 93.43542 127.065 58.35458 86 57.35125z"/><ellipse cx="24" cy="22" fill="url(#i)" rx="4" ry="2" transform="scale(3.58333)"/></g></svg>