<svg xmlns="http://www.w3.org/2000/svg" viewBox="0 0 172 172"><defs/><defs><linearGradient id="a" x1="65.35283" x2="96.53858" y1="15.308" y2="167.69642" gradientUnits="userSpaceOnUse"><stop offset="0" stop-color="#805fc3"/><stop offset="1" stop-color="#59228a"/></linearGradient><linearGradient id="b" x1="57.75258" x2="94.61075" y1="27.68483" y2="73.04983" gradientUnits="userSpaceOnUse"><stop offset=".491" stop-color="#fac600"/><stop offset="1" stop-color="#d66b00"/></linearGradient></defs><g fill="none" stroke-linecap="none" stroke-linejoin="none" stroke-miterlimit="10" stroke-width="none" font-family="none" font-size="none" font-weight="none" style="mix-blend-mode:normal" text-anchor="none"><path d="M0 172V0h172v172z"/><path fill="url(#a)" d="M154.62442 118.85917c-.70592 1.12875-.54825 2.53342.33325 3.52958 4.02767 4.54008 6.29233 10.59233 6.29233 16.64458 0 2.15-.35833 3.94167-.71667 5.73333-.39058 1.5695-1.85617 4.53292-3.33967 7.24908-1.78092 3.26442-5.19942 5.29258-8.91533 5.29258H23.65716c-3.73742 0-7.16308-2.05325-8.944-5.34275-1.462-2.70183-2.84875-5.6115-3.2465-7.19892-.35833-1.79167-.71667-3.58333-.71667-5.73333 0-6.74742 2.59433-12.9215 7.267-17.74108.95317-.98542 1.16817-2.41875.51958-3.62992-2.80217-5.21733-4.20325-10.99367-4.20325-17.329 0-19.46108 10.73567-34.69025 26.93233-37.63575 1.46558-.26517 2.51192-1.51217 2.46892-2.99925-.78475-27.1115 16.92767-41.78167 39.04042-41.78167 19.99142 0 36.33858 11.60642 38.829 34.49675.16842 1.54083 1.49783 2.74483 3.04583 2.78425 21.32442.52675 36.60017 17.56192 36.60017 41.194 0 7.85108-2.39008 15.70575-6.62558 22.4675z"/><path fill="url(#b)" d="M81.7 34.56483l4.89483 9.91508c.25442.51242.74175.86717 1.30792.94958l10.9435 1.591c1.42258.20783 1.99233 1.9565.96033 2.95983l-7.91917 7.7185c-.4085.39775-.59483.97467-.49808 1.53725l1.8705 10.9005c.24367 1.419-1.24342 2.49758-2.51908 1.8275l-9.78967-5.14567c-.50525-.26517-1.11083-.26517-1.61608 0l-9.78967 5.14567c-1.27208.67008-2.75917-.41208-2.51908-1.8275l1.8705-10.9005c.09675-.56258-.08958-1.13592-.49808-1.53725l-7.91917-7.7185c-1.02842-1.00333-.46225-2.752.96033-2.95983l10.9435-1.591c.56617-.08242 1.0535-.43717 1.30792-.94958l4.89483-9.91508c.64142-1.29 2.47967-1.29 3.11392 0z"/><path fill="#220f81" d="M88.06042 127.72792c.40492 1.98875 1.34375 3.79117 2.6875 5.24242-3.14258 1.98875-7.525 3.19992-12.3625 3.19992-3.3325 0-6.42492-.56617-9.05508-1.55875-.1075-.05375-.215-.07883-.3225-.13258-4.86617-1.9135-8.09117-5.246-8.09117-9.06225 0-5.94117 7.81883-10.75 17.46875-10.75 4.8375 0 9.21633 1.21117 12.38758 3.17125-1.88125 2.01383-2.98133 4.70133-2.98133 7.57875 0 .77758.08242 1.55875.26875 2.31125z"/><path fill="#d75b60" d="M90.74792 132.96675c-3.14258 1.98875-7.525 3.19992-12.3625 3.19992-3.3325 0-6.42492-.56617-9.05508-1.55875-.1075-.05375-.215-.07883-.3225-.13258.45508-4.70492 5.66883-8.43875 12.06508-8.43875 2.60508 0 4.99875.61992 6.9875 1.69492.40133 1.98517 1.34375 3.78758 2.6875 5.23525z"/><path stroke="#220f81" stroke-linecap="round" stroke-linejoin="round" stroke-width="7.16667" d="M95.85417 136.16667c-2.01742-.59125-3.7625-1.72-5.10625-3.19992-1.34375-1.45125-2.28617-3.25008-2.6875-5.23883-.18992-.7525-.26875-1.53367-.26875-2.31125 0-2.87742 1.10008-5.56492 2.98133-7.57875 1.31867-1.45125 3.09242-2.58 5.08117-3.17125"/><circle cx="28.5" cy="26.5" r="1.5" fill="#220f81" transform="scale(3.58333)"/><path fill="#220f81" d="M111.08333 93.16667H93.16666c-1.978 0-3.58333-1.60533-3.58333-3.58333 0-1.978 1.60533-3.58333 3.58333-3.58333h17.91667c1.978 0 3.58333 1.60533 3.58333 3.58333 0 1.978-1.60533 3.58333-3.58333 3.58333z"/><circle cx="15.5" cy="26.5" r="1.5" fill="#220f81" transform="scale(3.58333)"/><path fill="#220f81" d="M64.5 93.16667H46.58333c-1.978 0-3.58333-1.60533-3.58333-3.58333 0-1.978 1.60533-3.58333 3.58333-3.58333H64.5c1.978 0 3.58333 1.60533 3.58333 3.58333 0 1.978-1.60533 3.58333-3.58333 3.58333z"/><path fill="#151515" d="M80.14483 33.59733c.61992 0 1.23625.3225 1.55517.9675l4.89483 9.91508c.25442.51242.74175.86717 1.30792.94958l10.9435 1.591c1.42258.20783 1.99233 1.9565.96033 2.95983l-7.91917 7.7185c-.4085.39775-.59483.97467-.49808 1.53725l1.8705 10.9005c.1935 1.12158-.69875 2.03175-1.70925 2.03175-.26517 0-.54108-.0645-.80625-.20425l-9.78967-5.14567c-.25442-.13258-.53033-.20067-.80625-.20067-.27592 0-.55542.06808-.80625.20067l-9.78967 5.14567c-.26517.13975-.54108.20425-.80625.20425-1.0105 0-1.90275-.91017-1.70925-2.03175l1.8705-10.9005c.09675-.56258-.08958-1.13592-.49808-1.53725l-7.91917-7.7185c-1.02842-1.00333-.46225-2.752.96033-2.95983l10.9435-1.591c.56617-.08242 1.0535-.43717 1.30792-.94958l4.89483-9.91508c.31175-.645.92808-.9675 1.548-.9675m.00001-3.58333c-2.03892 0-3.86642 1.13592-4.76942 2.96342l-4.46483 9.04433-9.98317 1.45125c-2.01742.29383-3.66217 1.68058-4.29283 3.61917-.63067 1.93858-.11467 4.02767 1.34733 5.45383l7.224 7.04125-1.70567 9.94017c-.26517 1.548.16125 3.12467 1.16817 4.3215 1.01767 1.20758 2.50117 1.89917 4.07425 1.89917.85283 0 1.70925-.21142 2.47608-.61633l8.92967-4.69417 8.92967 4.69417c.76325.40133 1.61967.61633 2.47608.61633 1.5695 0 3.053-.69158 4.07425-1.89917 1.0105-1.19683 1.43333-2.76992 1.16817-4.3215l-1.70567-9.94017 7.224-7.04125c1.462-1.42258 1.97442-3.51167 1.34733-5.45383-.62708-1.94217-2.27542-3.32533-4.29283-3.61917l-9.98317-1.45125-4.46483-9.04433c-.91017-1.8275-2.73767-2.96342-4.77658-2.96342z" opacity=".05"/><path fill="#151515" d="M80.14483 33.59733c.61992 0 1.23625.3225 1.55517.9675l4.89483 9.91508c.25442.51242.74175.86717 1.30792.94958l10.9435 1.591c1.42258.20783 1.99233 1.9565.96033 2.95983l-7.91917 7.7185c-.4085.39775-.59483.97467-.49808 1.53725l1.8705 10.9005c.1935 1.12158-.69875 2.03175-1.70925 2.03175-.26517 0-.54108-.0645-.80625-.20425l-9.78967-5.14567c-.25442-.13258-.53033-.20067-.80625-.20067-.27592 0-.55542.06808-.80625.20067l-9.78967 5.14567c-.26517.13975-.54108.20425-.80625.20425-1.0105 0-1.90275-.91017-1.70925-2.03175l1.8705-10.9005c.09675-.56258-.08958-1.13592-.49808-1.53725l-7.91917-7.7185c-1.02842-1.00333-.46225-2.752.96033-2.95983l10.9435-1.591c.56617-.08242 1.0535-.43717 1.30792-.94958l4.89483-9.91508c.31175-.645.92808-.9675 1.548-.9675m.00001-1.79166c-1.35092 0-2.56567.7525-3.16408 1.96725L72.08592 43.688l-10.9005 1.55875c-1.33658.1935-2.4295 1.11442-2.84875 2.40083-.41925 1.28642-.07525 2.67317.89225 3.61558l7.91917 7.7185-1.88483 10.85033c-.17558 1.02842.10392 2.07117.774 2.86308.67725.80267 1.66267 1.26492 2.70183 1.26492.56617 0 1.13233-.13975 1.64117-.4085l9.78967-5.14567 9.73592 5.14567c.50883.26875 1.075.4085 1.64117.4085 1.03917 0 2.02458-.46225 2.70183-1.26492.6665-.79192.94958-1.83467.774-2.86308l-1.8705-10.9005 7.90125-7.66833c.9675-.94242 1.3115-2.32917.89225-3.61558-.41925-1.28642-1.50858-2.20733-2.84875-2.40083l-10.9435-1.591-4.85183-9.88642c-.59125-1.20758-1.80242-1.96367-3.15692-1.96367z" opacity=".05"/></g></svg>