<svg xmlns="http://www.w3.org/2000/svg" viewBox="0 0 172 172"><defs/><defs><linearGradient id="a" x1="157.48033" x2="47.61892" y1="192.0165" y2="53.09425" gradientUnits="userSpaceOnUse"><stop offset=".374" stop-color="#101334"/><stop offset=".663" stop-color="#12173d"/><stop offset="1" stop-color="#171e4d"/></linearGradient><linearGradient id="b" x1="114.00375" x2="71.122" y1="176.82317" y2="127.5595" gradientUnits="userSpaceOnUse"><stop offset="0" stop-color="#53170e"/><stop offset=".049" stop-color="#6c1d11"/><stop offset=".113" stop-color="#872413"/><stop offset=".187" stop-color="#9f2915"/><stop offset=".273" stop-color="#b12e16"/><stop offset=".38" stop-color="#be3118"/><stop offset=".529" stop-color="#c63218"/><stop offset=".944" stop-color="#c83318"/></linearGradient><linearGradient id="c" x1="66.68942" x2="97.87517" y1="40.84642" y2="125.54925" gradientUnits="userSpaceOnUse"><stop offset="0" stop-color="#f6f6f6"/><stop offset=".228" stop-color="#edeeef"/><stop offset=".595" stop-color="#d6d9db"/><stop offset="1" stop-color="#b4bbc0"/></linearGradient></defs><g fill="none" stroke-miterlimit="10" font-family="none" font-size="none" font-weight="none" style="mix-blend-mode:normal" text-anchor="none"><path d="M0 172V0h172v172z"/><path fill="url(#a)" d="M150.5 108.07333c0 12.255-1.29 24.1875-2.43667 34.7225-.43 4.04917-.82417 7.91917-1.14667 11.61-.17917 1.8275-1.72 3.26083-3.58333 3.26083H32.50083c-1.00333 0-1.97083-.43-2.65167-1.1825-.68083-.7525-1.00333-1.75583-.89583-2.75917.1075-1.11083.14333-2.11417.14333-3.04583 0-10.82167-2.2575-23.82917-4.22833-35.29583C23.1125 105.49333 21.5 96.14083 21.5 89.3325c0-30.27917 16.26833-55.93583 38.12667-60.70167C65.71834 17.70166 78.08084 10.75 91.6975 10.75c17.2 0 32.07083 11.10833 39.20167 22.07333 12.43417 19.2425 19.60083 46.69083 19.60083 75.25z"/><path fill="url(#b)" d="M120.32833 143.33333C117.39 131.11416 111.08333 129 111.08333 129h-43s-6.30667 2.11417-9.245 14.33333c-.89583 3.7625-1.505 8.45667-1.505 14.33333h64.5c0-5.87667-.60917-10.57083-1.505-14.33333z"/><path fill="url(#c)" d="M113.33725 83.18708c1.4405 3.68725 1.24342 7.85825-.71308 11.29825-3.956 6.96242-12.29083 11.04742-12.29083 20.61133 0 8.42083 3.58333 10.32 10.75 13.90333l-15.12883 10.08708c-3.85567 2.57283-8.88308 2.57283-12.73875 0l-15.13242-10.08708c7.16667-3.58333 10.75-6.02 10.75-13.90333 0-12.54167-17.91667-13.4375-17.91667-29.09667 0-8.48175 11.61-26.36617 13.932-39.00458.2795-1.52292 1.54442-1.74867 3.17125-.97825 7.0735 3.35758 20.07025 10.84675 29.48008 25.6495 2.55133 4.01333 4.43617 7.9335 5.83725 11.52042z"/><circle cx="26.5" cy="33.5" r=".5" fill="#272727" transform="scale(3.58333)"/><circle cx="26.5" cy="35.5" r=".5" fill="#272727" transform="scale(3.58333)"/><circle cx="20" cy="22" r="1" fill="#272727" transform="scale(3.58333)"/><circle cx="28" cy="22" r="1" fill="#272727" transform="scale(3.58333)"/><path fill="#272727" d="M93.1595 87.88483c-1.98875.86358-4.56517 1.6985-7.1595 1.6985-2.59433 0-5.17792-.8385-7.16667-1.70208v1.70208h.00358V96.75l3.12467-4.69058c1.23625.69875 2.60867 1.10725 4.042 1.10725 1.42975 0 2.79858-.4085 4.03483-1.10725L93.16308 96.75v-7.16667h-.00358z"/></g></svg>